<mxfile host="app.diagrams.net" agent="Mozilla/5.0 (Windows NT 10.0; Win64; x64) AppleWebKit/537.36 (KHTML, like Gecko) Chrome/131.0.0.0 Safari/537.36 Edg/131.0.0.0" version="26.0.6" pages="5">
  <diagram name="Diagramme_classe" id="7MDsHlNS_oWnuv8b-3D8">
    <mxGraphModel dx="3370" dy="1424" grid="1" gridSize="10" guides="1" tooltips="1" connect="1" arrows="1" fold="1" page="1" pageScale="1" pageWidth="850" pageHeight="1100" math="0" shadow="0">
      <root>
        <mxCell id="0" />
        <mxCell id="1" parent="0" />
        <mxCell id="QVOoM_U937RfzUmHjGtb-1" value="User" style="swimlane;fontStyle=0;childLayout=stackLayout;horizontal=1;startSize=26;fillColor=none;horizontalStack=0;resizeParent=1;resizeParentMax=0;resizeLast=0;collapsible=1;marginBottom=0;whiteSpace=wrap;html=1;" parent="1" vertex="1">
          <mxGeometry x="10" y="300" width="190" height="156" as="geometry">
            <mxRectangle x="90" y="150" width="70" height="30" as="alternateBounds" />
          </mxGeometry>
        </mxCell>
        <mxCell id="QVOoM_U937RfzUmHjGtb-3" value="LastName: string" style="text;strokeColor=none;fillColor=none;align=left;verticalAlign=top;spacingLeft=4;spacingRight=4;overflow=hidden;rotatable=0;points=[[0,0.5],[1,0.5]];portConstraint=eastwest;whiteSpace=wrap;html=1;" parent="QVOoM_U937RfzUmHjGtb-1" vertex="1">
          <mxGeometry y="26" width="190" height="26" as="geometry" />
        </mxCell>
        <mxCell id="QVOoM_U937RfzUmHjGtb-4" value="Email: string" style="text;strokeColor=none;fillColor=none;align=left;verticalAlign=top;spacingLeft=4;spacingRight=4;overflow=hidden;rotatable=0;points=[[0,0.5],[1,0.5]];portConstraint=eastwest;whiteSpace=wrap;html=1;" parent="QVOoM_U937RfzUmHjGtb-1" vertex="1">
          <mxGeometry y="52" width="190" height="26" as="geometry" />
        </mxCell>
        <mxCell id="QVOoM_U937RfzUmHjGtb-5" value="Matricule: string" style="text;strokeColor=none;fillColor=none;align=left;verticalAlign=top;spacingLeft=4;spacingRight=4;overflow=hidden;rotatable=0;points=[[0,0.5],[1,0.5]];portConstraint=eastwest;whiteSpace=wrap;html=1;" parent="QVOoM_U937RfzUmHjGtb-1" vertex="1">
          <mxGeometry y="78" width="190" height="26" as="geometry" />
        </mxCell>
        <mxCell id="QVOoM_U937RfzUmHjGtb-6" value="M365UUID: string" style="text;strokeColor=none;fillColor=none;align=left;verticalAlign=top;spacingLeft=4;spacingRight=4;overflow=hidden;rotatable=0;points=[[0,0.5],[1,0.5]];portConstraint=eastwest;whiteSpace=wrap;html=1;" parent="QVOoM_U937RfzUmHjGtb-1" vertex="1">
          <mxGeometry y="104" width="190" height="26" as="geometry" />
        </mxCell>
        <mxCell id="QVOoM_U937RfzUmHjGtb-7" value="FirstName: string" style="text;strokeColor=none;fillColor=none;align=left;verticalAlign=top;spacingLeft=4;spacingRight=4;overflow=hidden;rotatable=0;points=[[0,0.5],[1,0.5]];portConstraint=eastwest;whiteSpace=wrap;html=1;" parent="QVOoM_U937RfzUmHjGtb-1" vertex="1">
          <mxGeometry y="130" width="190" height="26" as="geometry" />
        </mxCell>
        <mxCell id="QVOoM_U937RfzUmHjGtb-8" value="Company" style="swimlane;fontStyle=0;childLayout=stackLayout;horizontal=1;startSize=26;fillColor=none;horizontalStack=0;resizeParent=1;resizeParentMax=0;resizeLast=0;collapsible=1;marginBottom=0;whiteSpace=wrap;html=1;" parent="1" vertex="1">
          <mxGeometry x="-260" y="330" width="140" height="78" as="geometry" />
        </mxCell>
        <mxCell id="QVOoM_U937RfzUmHjGtb-9" value="Label: string" style="text;strokeColor=none;fillColor=none;align=left;verticalAlign=top;spacingLeft=4;spacingRight=4;overflow=hidden;rotatable=0;points=[[0,0.5],[1,0.5]];portConstraint=eastwest;whiteSpace=wrap;html=1;" parent="QVOoM_U937RfzUmHjGtb-8" vertex="1">
          <mxGeometry y="26" width="140" height="26" as="geometry" />
        </mxCell>
        <mxCell id="QVOoM_U937RfzUmHjGtb-10" value="Code: Int" style="text;strokeColor=none;fillColor=none;align=left;verticalAlign=top;spacingLeft=4;spacingRight=4;overflow=hidden;rotatable=0;points=[[0,0.5],[1,0.5]];portConstraint=eastwest;whiteSpace=wrap;html=1;" parent="QVOoM_U937RfzUmHjGtb-8" vertex="1">
          <mxGeometry y="52" width="140" height="26" as="geometry" />
        </mxCell>
        <mxCell id="QVOoM_U937RfzUmHjGtb-15" value="Role" style="swimlane;fontStyle=0;childLayout=stackLayout;horizontal=1;startSize=26;fillColor=none;horizontalStack=0;resizeParent=1;resizeParentMax=0;resizeLast=0;collapsible=1;marginBottom=0;whiteSpace=wrap;html=1;" parent="1" vertex="1">
          <mxGeometry x="320" y="326" width="140" height="104" as="geometry" />
        </mxCell>
        <mxCell id="QVOoM_U937RfzUmHjGtb-16" value="IdRole: int" style="text;strokeColor=none;fillColor=none;align=left;verticalAlign=top;spacingLeft=4;spacingRight=4;overflow=hidden;rotatable=0;points=[[0,0.5],[1,0.5]];portConstraint=eastwest;whiteSpace=wrap;html=1;" parent="QVOoM_U937RfzUmHjGtb-15" vertex="1">
          <mxGeometry y="26" width="140" height="26" as="geometry" />
        </mxCell>
        <mxCell id="QVOoM_U937RfzUmHjGtb-36" value="LabelRole: string" style="text;strokeColor=none;fillColor=none;align=left;verticalAlign=top;spacingLeft=4;spacingRight=4;overflow=hidden;rotatable=0;points=[[0,0.5],[1,0.5]];portConstraint=eastwest;whiteSpace=wrap;html=1;" parent="QVOoM_U937RfzUmHjGtb-15" vertex="1">
          <mxGeometry y="52" width="140" height="26" as="geometry" />
        </mxCell>
        <mxCell id="QVOoM_U937RfzUmHjGtb-17" value="Description: string" style="text;strokeColor=none;fillColor=none;align=left;verticalAlign=top;spacingLeft=4;spacingRight=4;overflow=hidden;rotatable=0;points=[[0,0.5],[1,0.5]];portConstraint=eastwest;whiteSpace=wrap;html=1;" parent="QVOoM_U937RfzUmHjGtb-15" vertex="1">
          <mxGeometry y="78" width="140" height="26" as="geometry" />
        </mxCell>
        <mxCell id="UM3PU0FHHRPpxxZCHTmH-22" style="edgeStyle=orthogonalEdgeStyle;rounded=0;orthogonalLoop=1;jettySize=auto;html=1;exitX=0.75;exitY=0;exitDx=0;exitDy=0;entryX=0.871;entryY=1;entryDx=0;entryDy=0;entryPerimeter=0;" parent="1" source="QVOoM_U937RfzUmHjGtb-22" target="QVOoM_U937RfzUmHjGtb-48" edge="1">
          <mxGeometry relative="1" as="geometry">
            <Array as="points">
              <mxPoint x="545" y="420" />
              <mxPoint x="580" y="420" />
              <mxPoint x="580" y="200" />
            </Array>
          </mxGeometry>
        </mxCell>
        <mxCell id="QVOoM_U937RfzUmHjGtb-22" value="Privilege" style="swimlane;fontStyle=0;childLayout=stackLayout;horizontal=1;startSize=26;fillColor=none;horizontalStack=0;resizeParent=1;resizeParentMax=0;resizeLast=0;collapsible=1;marginBottom=0;whiteSpace=wrap;html=1;" parent="1" vertex="1">
          <mxGeometry x="480" y="510" width="140" height="104" as="geometry" />
        </mxCell>
        <mxCell id="QVOoM_U937RfzUmHjGtb-23" value="IdPrivileges: Int" style="text;strokeColor=none;fillColor=none;align=left;verticalAlign=top;spacingLeft=4;spacingRight=4;overflow=hidden;rotatable=0;points=[[0,0.5],[1,0.5]];portConstraint=eastwest;whiteSpace=wrap;html=1;" parent="QVOoM_U937RfzUmHjGtb-22" vertex="1">
          <mxGeometry y="26" width="140" height="26" as="geometry" />
        </mxCell>
        <mxCell id="QVOoM_U937RfzUmHjGtb-37" value="LabelPrivileges: string" style="text;strokeColor=none;fillColor=none;align=left;verticalAlign=top;spacingLeft=4;spacingRight=4;overflow=hidden;rotatable=0;points=[[0,0.5],[1,0.5]];portConstraint=eastwest;whiteSpace=wrap;html=1;" parent="QVOoM_U937RfzUmHjGtb-22" vertex="1">
          <mxGeometry y="52" width="140" height="26" as="geometry" />
        </mxCell>
        <mxCell id="QVOoM_U937RfzUmHjGtb-24" value="Description" style="text;strokeColor=none;fillColor=none;align=left;verticalAlign=top;spacingLeft=4;spacingRight=4;overflow=hidden;rotatable=0;points=[[0,0.5],[1,0.5]];portConstraint=eastwest;whiteSpace=wrap;html=1;" parent="QVOoM_U937RfzUmHjGtb-22" vertex="1">
          <mxGeometry y="78" width="140" height="26" as="geometry" />
        </mxCell>
        <mxCell id="QVOoM_U937RfzUmHjGtb-29" value="RolePrivileges" style="swimlane;fontStyle=0;childLayout=stackLayout;horizontal=1;startSize=26;fillColor=none;horizontalStack=0;resizeParent=1;resizeParentMax=0;resizeLast=0;collapsible=1;marginBottom=0;whiteSpace=wrap;html=1;" parent="1" vertex="1">
          <mxGeometry x="280" y="490" width="140" height="78" as="geometry" />
        </mxCell>
        <mxCell id="QVOoM_U937RfzUmHjGtb-30" value="IdRole: Int" style="text;strokeColor=none;fillColor=none;align=left;verticalAlign=top;spacingLeft=4;spacingRight=4;overflow=hidden;rotatable=0;points=[[0,0.5],[1,0.5]];portConstraint=eastwest;whiteSpace=wrap;html=1;" parent="QVOoM_U937RfzUmHjGtb-29" vertex="1">
          <mxGeometry y="26" width="140" height="26" as="geometry" />
        </mxCell>
        <mxCell id="QVOoM_U937RfzUmHjGtb-31" value="IdPrivileges: Int" style="text;strokeColor=none;fillColor=none;align=left;verticalAlign=top;spacingLeft=4;spacingRight=4;overflow=hidden;rotatable=0;points=[[0,0.5],[1,0.5]];portConstraint=eastwest;whiteSpace=wrap;html=1;" parent="QVOoM_U937RfzUmHjGtb-29" vertex="1">
          <mxGeometry y="52" width="140" height="26" as="geometry" />
        </mxCell>
        <mxCell id="QVOoM_U937RfzUmHjGtb-43" value="&lt;div&gt;&lt;i&gt;&amp;lt;&amp;lt;abstract&amp;gt;&amp;gt;&lt;/i&gt;&lt;br&gt;&lt;/div&gt;Traceability" style="swimlane;fontStyle=0;childLayout=stackLayout;horizontal=1;startSize=50;fillColor=none;horizontalStack=0;resizeParent=1;resizeParentMax=0;resizeLast=0;collapsible=1;marginBottom=0;whiteSpace=wrap;html=1;" parent="1" vertex="1">
          <mxGeometry x="370" y="20" width="140" height="180" as="geometry" />
        </mxCell>
        <mxCell id="QVOoM_U937RfzUmHjGtb-44" value="Id: int" style="text;strokeColor=none;fillColor=none;align=left;verticalAlign=top;spacingLeft=4;spacingRight=4;overflow=hidden;rotatable=0;points=[[0,0.5],[1,0.5]];portConstraint=eastwest;whiteSpace=wrap;html=1;" parent="QVOoM_U937RfzUmHjGtb-43" vertex="1">
          <mxGeometry y="50" width="140" height="26" as="geometry" />
        </mxCell>
        <mxCell id="QVOoM_U937RfzUmHjGtb-45" value="InsertionUserId: id" style="text;strokeColor=none;fillColor=none;align=left;verticalAlign=top;spacingLeft=4;spacingRight=4;overflow=hidden;rotatable=0;points=[[0,0.5],[1,0.5]];portConstraint=eastwest;whiteSpace=wrap;html=1;" parent="QVOoM_U937RfzUmHjGtb-43" vertex="1">
          <mxGeometry y="76" width="140" height="26" as="geometry" />
        </mxCell>
        <mxCell id="QVOoM_U937RfzUmHjGtb-46" value="InsertionDate: Date" style="text;strokeColor=none;fillColor=none;align=left;verticalAlign=top;spacingLeft=4;spacingRight=4;overflow=hidden;rotatable=0;points=[[0,0.5],[1,0.5]];portConstraint=eastwest;whiteSpace=wrap;html=1;" parent="QVOoM_U937RfzUmHjGtb-43" vertex="1">
          <mxGeometry y="102" width="140" height="26" as="geometry" />
        </mxCell>
        <mxCell id="QVOoM_U937RfzUmHjGtb-47" value="UpdateUserId: Id" style="text;strokeColor=none;fillColor=none;align=left;verticalAlign=top;spacingLeft=4;spacingRight=4;overflow=hidden;rotatable=0;points=[[0,0.5],[1,0.5]];portConstraint=eastwest;whiteSpace=wrap;html=1;" parent="QVOoM_U937RfzUmHjGtb-43" vertex="1">
          <mxGeometry y="128" width="140" height="26" as="geometry" />
        </mxCell>
        <mxCell id="QVOoM_U937RfzUmHjGtb-48" value="UpdateDateId: Date" style="text;strokeColor=none;fillColor=none;align=left;verticalAlign=top;spacingLeft=4;spacingRight=4;overflow=hidden;rotatable=0;points=[[0,0.5],[1,0.5]];portConstraint=eastwest;whiteSpace=wrap;html=1;" parent="QVOoM_U937RfzUmHjGtb-43" vertex="1">
          <mxGeometry y="154" width="140" height="26" as="geometry" />
        </mxCell>
        <mxCell id="QVOoM_U937RfzUmHjGtb-49" value="DSF" style="swimlane;fontStyle=0;childLayout=stackLayout;horizontal=1;startSize=26;fillColor=none;horizontalStack=0;resizeParent=1;resizeParentMax=0;resizeLast=0;collapsible=1;marginBottom=0;whiteSpace=wrap;html=1;" parent="1" vertex="1">
          <mxGeometry x="-580" y="300" width="140" height="176" as="geometry" />
        </mxCell>
        <mxCell id="QVOoM_U937RfzUmHjGtb-50" value="CompanyId: Int" style="text;strokeColor=none;fillColor=none;align=left;verticalAlign=top;spacingLeft=4;spacingRight=4;overflow=hidden;rotatable=0;points=[[0,0.5],[1,0.5]];portConstraint=eastwest;whiteSpace=wrap;html=1;" parent="QVOoM_U937RfzUmHjGtb-49" vertex="1">
          <mxGeometry y="26" width="140" height="26" as="geometry" />
        </mxCell>
        <mxCell id="QVOoM_U937RfzUmHjGtb-51" value="Label: string" style="text;strokeColor=none;fillColor=none;align=left;verticalAlign=top;spacingLeft=4;spacingRight=4;overflow=hidden;rotatable=0;points=[[0,0.5],[1,0.5]];portConstraint=eastwest;whiteSpace=wrap;html=1;" parent="QVOoM_U937RfzUmHjGtb-49" vertex="1">
          <mxGeometry y="52" width="140" height="26" as="geometry" />
        </mxCell>
        <mxCell id="QVOoM_U937RfzUmHjGtb-52" value="pathFile: string" style="text;strokeColor=none;fillColor=none;align=left;verticalAlign=top;spacingLeft=4;spacingRight=4;overflow=hidden;rotatable=0;points=[[0,0.5],[1,0.5]];portConstraint=eastwest;whiteSpace=wrap;html=1;" parent="QVOoM_U937RfzUmHjGtb-49" vertex="1">
          <mxGeometry y="78" width="140" height="26" as="geometry" />
        </mxCell>
        <mxCell id="QVOoM_U937RfzUmHjGtb-53" value="pathFileDGI: string" style="text;strokeColor=none;fillColor=none;align=left;verticalAlign=top;spacingLeft=4;spacingRight=4;overflow=hidden;rotatable=0;points=[[0,0.5],[1,0.5]];portConstraint=eastwest;whiteSpace=wrap;html=1;" parent="QVOoM_U937RfzUmHjGtb-49" vertex="1">
          <mxGeometry y="104" width="140" height="26" as="geometry" />
        </mxCell>
        <mxCell id="QVOoM_U937RfzUmHjGtb-54" value="BalanceFile: string" style="text;strokeColor=none;fillColor=none;align=left;verticalAlign=top;spacingLeft=4;spacingRight=4;overflow=hidden;rotatable=0;points=[[0,0.5],[1,0.5]];portConstraint=eastwest;whiteSpace=wrap;html=1;" parent="QVOoM_U937RfzUmHjGtb-49" vertex="1">
          <mxGeometry y="130" width="140" height="20" as="geometry" />
        </mxCell>
        <mxCell id="QVOoM_U937RfzUmHjGtb-55" value="Year: date" style="text;strokeColor=none;fillColor=none;align=left;verticalAlign=top;spacingLeft=4;spacingRight=4;overflow=hidden;rotatable=0;points=[[0,0.5],[1,0.5]];portConstraint=eastwest;whiteSpace=wrap;html=1;" parent="QVOoM_U937RfzUmHjGtb-49" vertex="1">
          <mxGeometry y="150" width="140" height="26" as="geometry" />
        </mxCell>
        <mxCell id="QVOoM_U937RfzUmHjGtb-59" value="AccountCompany" style="swimlane;fontStyle=0;childLayout=stackLayout;horizontal=1;startSize=26;fillColor=none;horizontalStack=0;resizeParent=1;resizeParentMax=0;resizeLast=0;collapsible=1;marginBottom=0;whiteSpace=wrap;html=1;" parent="1" vertex="1">
          <mxGeometry x="-150" y="560" width="140" height="104" as="geometry" />
        </mxCell>
        <mxCell id="QVOoM_U937RfzUmHjGtb-60" value="CompanyId : int" style="text;strokeColor=none;fillColor=none;align=left;verticalAlign=top;spacingLeft=4;spacingRight=4;overflow=hidden;rotatable=0;points=[[0,0.5],[1,0.5]];portConstraint=eastwest;whiteSpace=wrap;html=1;" parent="QVOoM_U937RfzUmHjGtb-59" vertex="1">
          <mxGeometry y="26" width="140" height="26" as="geometry" />
        </mxCell>
        <mxCell id="QVOoM_U937RfzUmHjGtb-61" value="LocalAccount: string" style="text;strokeColor=none;fillColor=none;align=left;verticalAlign=top;spacingLeft=4;spacingRight=4;overflow=hidden;rotatable=0;points=[[0,0.5],[1,0.5]];portConstraint=eastwest;whiteSpace=wrap;html=1;" parent="QVOoM_U937RfzUmHjGtb-59" vertex="1">
          <mxGeometry y="52" width="140" height="26" as="geometry" />
        </mxCell>
        <mxCell id="QVOoM_U937RfzUmHjGtb-62" value="OhadaAccount; string" style="text;strokeColor=none;fillColor=none;align=left;verticalAlign=top;spacingLeft=4;spacingRight=4;overflow=hidden;rotatable=0;points=[[0,0.5],[1,0.5]];portConstraint=eastwest;whiteSpace=wrap;html=1;" parent="QVOoM_U937RfzUmHjGtb-59" vertex="1">
          <mxGeometry y="78" width="140" height="26" as="geometry" />
        </mxCell>
        <mxCell id="UM3PU0FHHRPpxxZCHTmH-19" style="edgeStyle=orthogonalEdgeStyle;rounded=0;orthogonalLoop=1;jettySize=auto;html=1;exitX=0.75;exitY=0;exitDx=0;exitDy=0;entryX=1;entryY=0.5;entryDx=0;entryDy=0;" parent="1" source="QVOoM_U937RfzUmHjGtb-64" target="QVOoM_U937RfzUmHjGtb-47" edge="1">
          <mxGeometry relative="1" as="geometry" />
        </mxCell>
        <mxCell id="QVOoM_U937RfzUmHjGtb-64" value="AccountChart" style="swimlane;fontStyle=0;childLayout=stackLayout;horizontal=1;startSize=26;fillColor=none;horizontalStack=0;resizeParent=1;resizeParentMax=0;resizeLast=0;collapsible=1;marginBottom=0;whiteSpace=wrap;html=1;" parent="1" vertex="1">
          <mxGeometry x="640" y="314" width="140" height="80" as="geometry" />
        </mxCell>
        <mxCell id="QVOoM_U937RfzUmHjGtb-65" value="Label :&amp;nbsp; string" style="text;strokeColor=none;fillColor=none;align=left;verticalAlign=top;spacingLeft=4;spacingRight=4;overflow=hidden;rotatable=0;points=[[0,0.5],[1,0.5]];portConstraint=eastwest;whiteSpace=wrap;html=1;" parent="QVOoM_U937RfzUmHjGtb-64" vertex="1">
          <mxGeometry y="26" width="140" height="26" as="geometry" />
        </mxCell>
        <mxCell id="QVOoM_U937RfzUmHjGtb-66" value="pathfile: string" style="text;strokeColor=none;fillColor=none;align=left;verticalAlign=top;spacingLeft=4;spacingRight=4;overflow=hidden;rotatable=0;points=[[0,0.5],[1,0.5]];portConstraint=eastwest;whiteSpace=wrap;html=1;" parent="QVOoM_U937RfzUmHjGtb-64" vertex="1">
          <mxGeometry y="52" width="140" height="28" as="geometry" />
        </mxCell>
        <mxCell id="UM3PU0FHHRPpxxZCHTmH-20" style="edgeStyle=orthogonalEdgeStyle;rounded=0;orthogonalLoop=1;jettySize=auto;html=1;exitX=1;exitY=0.5;exitDx=0;exitDy=0;entryX=1;entryY=0.5;entryDx=0;entryDy=0;" parent="1" source="QVOoM_U937RfzUmHjGtb-61" target="QVOoM_U937RfzUmHjGtb-44" edge="1">
          <mxGeometry relative="1" as="geometry">
            <Array as="points">
              <mxPoint x="-10" y="620" />
              <mxPoint x="860" y="620" />
              <mxPoint x="860" y="83" />
            </Array>
          </mxGeometry>
        </mxCell>
        <mxCell id="UM3PU0FHHRPpxxZCHTmH-21" style="edgeStyle=orthogonalEdgeStyle;rounded=0;orthogonalLoop=1;jettySize=auto;html=1;exitX=0.75;exitY=0;exitDx=0;exitDy=0;entryX=0.611;entryY=1.007;entryDx=0;entryDy=0;entryPerimeter=0;" parent="1" source="QVOoM_U937RfzUmHjGtb-15" target="QVOoM_U937RfzUmHjGtb-48" edge="1">
          <mxGeometry relative="1" as="geometry" />
        </mxCell>
        <mxCell id="UM3PU0FHHRPpxxZCHTmH-23" style="edgeStyle=orthogonalEdgeStyle;rounded=0;orthogonalLoop=1;jettySize=auto;html=1;exitX=0.75;exitY=0;exitDx=0;exitDy=0;entryX=-0.003;entryY=0.106;entryDx=0;entryDy=0;entryPerimeter=0;" parent="1" source="QVOoM_U937RfzUmHjGtb-1" target="QVOoM_U937RfzUmHjGtb-47" edge="1">
          <mxGeometry relative="1" as="geometry" />
        </mxCell>
        <mxCell id="UM3PU0FHHRPpxxZCHTmH-24" style="edgeStyle=orthogonalEdgeStyle;rounded=0;orthogonalLoop=1;jettySize=auto;html=1;exitX=0.75;exitY=0;exitDx=0;exitDy=0;entryX=-0.014;entryY=0.295;entryDx=0;entryDy=0;entryPerimeter=0;" parent="1" source="QVOoM_U937RfzUmHjGtb-8" target="QVOoM_U937RfzUmHjGtb-46" edge="1">
          <mxGeometry relative="1" as="geometry" />
        </mxCell>
        <mxCell id="UM3PU0FHHRPpxxZCHTmH-25" style="edgeStyle=orthogonalEdgeStyle;rounded=0;orthogonalLoop=1;jettySize=auto;html=1;exitX=0.75;exitY=0;exitDx=0;exitDy=0;entryX=-0.014;entryY=0.808;entryDx=0;entryDy=0;entryPerimeter=0;" parent="1" source="QVOoM_U937RfzUmHjGtb-49" target="QVOoM_U937RfzUmHjGtb-44" edge="1">
          <mxGeometry relative="1" as="geometry" />
        </mxCell>
        <mxCell id="UM3PU0FHHRPpxxZCHTmH-26" value="" style="endArrow=none;html=1;edgeStyle=orthogonalEdgeStyle;rounded=0;entryX=0;entryY=0.5;entryDx=0;entryDy=0;exitX=1;exitY=0.154;exitDx=0;exitDy=0;exitPerimeter=0;" parent="1" source="QVOoM_U937RfzUmHjGtb-9" target="QVOoM_U937RfzUmHjGtb-5" edge="1">
          <mxGeometry relative="1" as="geometry">
            <mxPoint x="-120" y="380" as="sourcePoint" />
            <mxPoint x="20" y="394" as="targetPoint" />
            <Array as="points">
              <mxPoint x="-120" y="394" />
              <mxPoint x="-60" y="394" />
              <mxPoint x="-60" y="380" />
              <mxPoint x="10" y="380" />
            </Array>
          </mxGeometry>
        </mxCell>
        <mxCell id="UM3PU0FHHRPpxxZCHTmH-27" value="1,n" style="edgeLabel;resizable=0;html=1;align=left;verticalAlign=bottom;" parent="UM3PU0FHHRPpxxZCHTmH-26" connectable="0" vertex="1">
          <mxGeometry x="-1" relative="1" as="geometry" />
        </mxCell>
        <mxCell id="UM3PU0FHHRPpxxZCHTmH-28" value="1,n" style="edgeLabel;resizable=0;html=1;align=right;verticalAlign=bottom;" parent="UM3PU0FHHRPpxxZCHTmH-26" connectable="0" vertex="1">
          <mxGeometry x="1" relative="1" as="geometry" />
        </mxCell>
        <mxCell id="UM3PU0FHHRPpxxZCHTmH-30" value="" style="endArrow=none;html=1;edgeStyle=orthogonalEdgeStyle;rounded=0;exitX=1;exitY=0.154;exitDx=0;exitDy=0;exitPerimeter=0;" parent="1" target="QVOoM_U937RfzUmHjGtb-59" edge="1">
          <mxGeometry relative="1" as="geometry">
            <mxPoint x="-200" y="420" as="sourcePoint" />
            <mxPoint x="-70" y="451" as="targetPoint" />
            <Array as="points">
              <mxPoint x="-200" y="454" />
              <mxPoint x="-140" y="454" />
              <mxPoint x="-140" y="440" />
              <mxPoint x="-70" y="440" />
            </Array>
          </mxGeometry>
        </mxCell>
        <mxCell id="UM3PU0FHHRPpxxZCHTmH-31" value="1" style="edgeLabel;resizable=0;html=1;align=left;verticalAlign=bottom;" parent="UM3PU0FHHRPpxxZCHTmH-30" connectable="0" vertex="1">
          <mxGeometry x="-1" relative="1" as="geometry" />
        </mxCell>
        <mxCell id="UM3PU0FHHRPpxxZCHTmH-32" value="1,n" style="edgeLabel;resizable=0;html=1;align=right;verticalAlign=bottom;" parent="UM3PU0FHHRPpxxZCHTmH-30" connectable="0" vertex="1">
          <mxGeometry x="1" relative="1" as="geometry" />
        </mxCell>
        <mxCell id="UM3PU0FHHRPpxxZCHTmH-33" value="" style="endArrow=none;html=1;edgeStyle=orthogonalEdgeStyle;rounded=0;exitX=1;exitY=0.154;exitDx=0;exitDy=0;exitPerimeter=0;entryX=0.006;entryY=1.092;entryDx=0;entryDy=0;entryPerimeter=0;" parent="1" target="QVOoM_U937RfzUmHjGtb-9" edge="1">
          <mxGeometry relative="1" as="geometry">
            <mxPoint x="-440" y="370" as="sourcePoint" />
            <mxPoint x="-310" y="510" as="targetPoint" />
            <Array as="points">
              <mxPoint x="-310" y="370" />
              <mxPoint x="-310" y="383" />
              <mxPoint x="-259" y="383" />
            </Array>
          </mxGeometry>
        </mxCell>
        <mxCell id="UM3PU0FHHRPpxxZCHTmH-34" value="1,1" style="edgeLabel;resizable=0;html=1;align=left;verticalAlign=bottom;" parent="UM3PU0FHHRPpxxZCHTmH-33" connectable="0" vertex="1">
          <mxGeometry x="-1" relative="1" as="geometry" />
        </mxCell>
        <mxCell id="UM3PU0FHHRPpxxZCHTmH-35" value="1" style="edgeLabel;resizable=0;html=1;align=right;verticalAlign=bottom;" parent="UM3PU0FHHRPpxxZCHTmH-33" connectable="0" vertex="1">
          <mxGeometry x="1" relative="1" as="geometry" />
        </mxCell>
        <mxCell id="UM3PU0FHHRPpxxZCHTmH-39" value="durant une année" style="text;html=1;align=center;verticalAlign=middle;resizable=0;points=[];autosize=1;strokeColor=none;fillColor=none;" parent="1" vertex="1">
          <mxGeometry x="-425" y="348" width="120" height="30" as="geometry" />
        </mxCell>
        <mxCell id="UM3PU0FHHRPpxxZCHTmH-40" value="" style="endArrow=none;html=1;edgeStyle=orthogonalEdgeStyle;rounded=0;entryX=-0.001;entryY=0.641;entryDx=0;entryDy=0;exitX=1;exitY=0.5;exitDx=0;exitDy=0;entryPerimeter=0;" parent="1" source="QVOoM_U937RfzUmHjGtb-4" target="QVOoM_U937RfzUmHjGtb-36" edge="1">
          <mxGeometry relative="1" as="geometry">
            <mxPoint x="220" y="370.97" as="sourcePoint" />
            <mxPoint x="350" y="401.97" as="targetPoint" />
            <Array as="points">
              <mxPoint x="220" y="365" />
              <mxPoint x="220" y="405" />
              <mxPoint x="280" y="405" />
              <mxPoint x="280" y="391" />
              <mxPoint x="310" y="391" />
              <mxPoint x="310" y="395" />
              <mxPoint x="320" y="395" />
            </Array>
          </mxGeometry>
        </mxCell>
        <mxCell id="UM3PU0FHHRPpxxZCHTmH-41" value="1,n" style="edgeLabel;resizable=0;html=1;align=left;verticalAlign=bottom;" parent="UM3PU0FHHRPpxxZCHTmH-40" connectable="0" vertex="1">
          <mxGeometry x="-1" relative="1" as="geometry" />
        </mxCell>
        <mxCell id="UM3PU0FHHRPpxxZCHTmH-42" value="1" style="edgeLabel;resizable=0;html=1;align=right;verticalAlign=bottom;" parent="UM3PU0FHHRPpxxZCHTmH-40" connectable="0" vertex="1">
          <mxGeometry x="1" relative="1" as="geometry" />
        </mxCell>
        <mxCell id="UM3PU0FHHRPpxxZCHTmH-43" value="" style="endArrow=none;html=1;edgeStyle=orthogonalEdgeStyle;rounded=0;entryX=0.201;entryY=-0.01;entryDx=0;entryDy=0;exitX=0.503;exitY=0.979;exitDx=0;exitDy=0;exitPerimeter=0;entryPerimeter=0;" parent="1" source="QVOoM_U937RfzUmHjGtb-17" target="QVOoM_U937RfzUmHjGtb-22" edge="1">
          <mxGeometry relative="1" as="geometry">
            <mxPoint x="375" y="456" as="sourcePoint" />
            <mxPoint x="505" y="487" as="targetPoint" />
            <Array as="points">
              <mxPoint x="390" y="440" />
              <mxPoint x="430" y="440" />
              <mxPoint x="430" y="476" />
              <mxPoint x="505" y="476" />
              <mxPoint x="505" y="510" />
              <mxPoint x="508" y="510" />
            </Array>
          </mxGeometry>
        </mxCell>
        <mxCell id="UM3PU0FHHRPpxxZCHTmH-44" value="1,n" style="edgeLabel;resizable=0;html=1;align=left;verticalAlign=bottom;" parent="UM3PU0FHHRPpxxZCHTmH-43" connectable="0" vertex="1">
          <mxGeometry x="-1" relative="1" as="geometry">
            <mxPoint y="21" as="offset" />
          </mxGeometry>
        </mxCell>
        <mxCell id="UM3PU0FHHRPpxxZCHTmH-45" value="1,n" style="edgeLabel;resizable=0;html=1;align=right;verticalAlign=bottom;" parent="UM3PU0FHHRPpxxZCHTmH-43" connectable="0" vertex="1">
          <mxGeometry x="1" relative="1" as="geometry">
            <mxPoint x="22" y="1" as="offset" />
          </mxGeometry>
        </mxCell>
        <mxCell id="UM3PU0FHHRPpxxZCHTmH-46" value="dipose" style="text;html=1;align=center;verticalAlign=middle;resizable=0;points=[];autosize=1;strokeColor=none;fillColor=none;" parent="1" vertex="1">
          <mxGeometry x="220" y="378" width="60" height="30" as="geometry" />
        </mxCell>
        <mxCell id="UM3PU0FHHRPpxxZCHTmH-47" value="associé" style="text;html=1;align=center;verticalAlign=middle;resizable=0;points=[];autosize=1;strokeColor=none;fillColor=none;" parent="1" vertex="1">
          <mxGeometry x="440" y="446" width="60" height="30" as="geometry" />
        </mxCell>
        <mxCell id="UM3PU0FHHRPpxxZCHTmH-48" value="appartient" style="text;html=1;align=center;verticalAlign=middle;resizable=0;points=[];autosize=1;strokeColor=none;fillColor=none;" parent="1" vertex="1">
          <mxGeometry x="-90" y="354" width="80" height="30" as="geometry" />
        </mxCell>
        <mxCell id="UM3PU0FHHRPpxxZCHTmH-50" value="Company" style="swimlane;fontStyle=0;childLayout=stackLayout;horizontal=1;startSize=26;fillColor=none;horizontalStack=0;resizeParent=1;resizeParentMax=0;resizeLast=0;collapsible=1;marginBottom=0;whiteSpace=wrap;html=1;" parent="1" vertex="1">
          <mxGeometry x="-420" y="586" width="140" height="78" as="geometry" />
        </mxCell>
        <mxCell id="UM3PU0FHHRPpxxZCHTmH-51" value="Label: string" style="text;strokeColor=none;fillColor=none;align=left;verticalAlign=top;spacingLeft=4;spacingRight=4;overflow=hidden;rotatable=0;points=[[0,0.5],[1,0.5]];portConstraint=eastwest;whiteSpace=wrap;html=1;" parent="UM3PU0FHHRPpxxZCHTmH-50" vertex="1">
          <mxGeometry y="26" width="140" height="26" as="geometry" />
        </mxCell>
        <mxCell id="UM3PU0FHHRPpxxZCHTmH-52" value="Code: Int" style="text;strokeColor=none;fillColor=none;align=left;verticalAlign=top;spacingLeft=4;spacingRight=4;overflow=hidden;rotatable=0;points=[[0,0.5],[1,0.5]];portConstraint=eastwest;whiteSpace=wrap;html=1;" parent="UM3PU0FHHRPpxxZCHTmH-50" vertex="1">
          <mxGeometry y="52" width="140" height="26" as="geometry" />
        </mxCell>
        <mxCell id="UM3PU0FHHRPpxxZCHTmH-54" value="&lt;h1 style=&quot;margin-top: 0px;&quot;&gt;&lt;span style=&quot;background-color: transparent; color: light-dark(rgb(0, 0, 0), rgb(255, 255, 255));&quot;&gt;Informations de l&#39;entreprise&lt;/span&gt;&lt;/h1&gt;&lt;h1 style=&quot;margin-top: 0px;&quot;&gt;&lt;span style=&quot;background-color: transparent; color: light-dark(rgb(0, 0, 0), rgb(255, 255, 255)); font-size: 12px; font-weight: normal;&quot;&gt;Les données tels que: NUI, le registre de commerce, etc. qui sont renseignés dans la ficher R1 seront ils renseignés par l&#39;utilisateur ou doivent-ils être automatiquement (cf Fiche-R1)&amp;nbsp;&amp;nbsp;&lt;/span&gt;&lt;/h1&gt;" style="text;html=1;whiteSpace=wrap;overflow=hidden;rounded=0;fillColor=#fff2cc;strokeColor=#d6b656;" parent="1" vertex="1">
          <mxGeometry x="-795" y="720" width="490" height="140" as="geometry" />
        </mxCell>
      </root>
    </mxGraphModel>
  </diagram>
  <diagram id="Qf4idlKWJF_sixttktTd" name="Architecture_Auth_Azure_AD_Multi_Apps">
    <mxGraphModel grid="1" page="1" gridSize="10" guides="1" tooltips="1" connect="1" arrows="1" fold="1" pageScale="1" pageWidth="850" pageHeight="1100" math="0" shadow="0">
      <root>
        <mxCell id="0" />
        <mxCell id="1" parent="0" />
        <mxCell id="jclQQDMFsEUQar5XZO0B-2" value="" style="rounded=0;whiteSpace=wrap;html=1;fillColor=#dae8fc;strokeColor=#6c8ebf;shadow=1;glass=1;" parent="1" vertex="1">
          <mxGeometry x="30" y="220" width="200" height="440" as="geometry" />
        </mxCell>
        <mxCell id="jclQQDMFsEUQar5XZO0B-3" value="Côté Client" style="text;html=1;align=center;verticalAlign=middle;resizable=0;points=[];autosize=1;strokeColor=none;fillColor=none;fontStyle=0;fontSize=16;fontColor=light-dark(#7b6060, #ededed);" parent="1" vertex="1">
          <mxGeometry x="80" y="230" width="100" height="30" as="geometry" />
        </mxCell>
        <mxCell id="jclQQDMFsEUQar5XZO0B-4" value="App NextJS" style="rounded=0;whiteSpace=wrap;html=1;fillColor=#fff2cc;strokeColor=#d6b656;glass=1;fontStyle=1" parent="1" vertex="1">
          <mxGeometry x="70" y="410" width="120" height="50" as="geometry" />
        </mxCell>
        <mxCell id="jclQQDMFsEUQar5XZO0B-5" value="" style="rounded=0;whiteSpace=wrap;html=1;fillColor=#D4E1F5;strokeColor=none;shadow=1;glass=1;" parent="1" vertex="1">
          <mxGeometry x="386" y="220" width="510" height="150" as="geometry" />
        </mxCell>
        <mxCell id="jclQQDMFsEUQar5XZO0B-6" value="Côté Serveur" style="text;html=1;align=center;verticalAlign=middle;resizable=0;points=[];autosize=1;strokeColor=none;fillColor=none;fontStyle=0;fontSize=16;fontColor=light-dark(#926373, #ededed);" parent="1" vertex="1">
          <mxGeometry x="576" y="222" width="120" height="30" as="geometry" />
        </mxCell>
        <mxCell id="jclQQDMFsEUQar5XZO0B-9" value="" style="group" parent="1" vertex="1" connectable="0">
          <mxGeometry x="451" y="287" width="85" height="60" as="geometry" />
        </mxCell>
        <mxCell id="jclQQDMFsEUQar5XZO0B-7" value="&lt;b&gt;Main API&lt;/b&gt;" style="rounded=0;whiteSpace=wrap;html=1;fillColor=#ffe6cc;strokeColor=none;glass=1;" parent="jclQQDMFsEUQar5XZO0B-9" vertex="1">
          <mxGeometry width="85" height="30" as="geometry" />
        </mxCell>
        <mxCell id="jclQQDMFsEUQar5XZO0B-8" value="ASP .NET CORE" style="rounded=0;whiteSpace=wrap;html=1;fontSize=9;fillColor=none;strokeColor=none;" parent="jclQQDMFsEUQar5XZO0B-9" vertex="1">
          <mxGeometry y="30" width="85" height="30" as="geometry" />
        </mxCell>
        <mxCell id="jclQQDMFsEUQar5XZO0B-10" value="" style="group" parent="1" vertex="1" connectable="0">
          <mxGeometry x="786" y="275" width="85" height="60" as="geometry" />
        </mxCell>
        <mxCell id="jclQQDMFsEUQar5XZO0B-11" value="&lt;b&gt;Local API&lt;/b&gt;" style="rounded=0;whiteSpace=wrap;html=1;strokeColor=none;glass=1;fillColor=#ffe6cc;" parent="jclQQDMFsEUQar5XZO0B-10" vertex="1">
          <mxGeometry width="85" height="30" as="geometry" />
        </mxCell>
        <mxCell id="jclQQDMFsEUQar5XZO0B-12" value="ASP .NET CORE" style="rounded=0;whiteSpace=wrap;html=1;fontSize=9;fillColor=none;strokeColor=none;" parent="jclQQDMFsEUQar5XZO0B-10" vertex="1">
          <mxGeometry y="30" width="85" height="30" as="geometry" />
        </mxCell>
        <mxCell id="jclQQDMFsEUQar5XZO0B-13" value="" style="rounded=0;whiteSpace=wrap;html=1;fillColor=#dae8fc;strokeColor=#6c8ebf;shadow=1;glass=1;" parent="1" vertex="1">
          <mxGeometry x="540" y="420" width="590" height="240" as="geometry" />
        </mxCell>
        <mxCell id="jclQQDMFsEUQar5XZO0B-16" style="edgeStyle=orthogonalEdgeStyle;rounded=0;orthogonalLoop=1;jettySize=auto;html=1;exitX=1;exitY=0.75;exitDx=0;exitDy=0;entryX=0.5;entryY=0;entryDx=0;entryDy=0;" parent="1" source="jclQQDMFsEUQar5XZO0B-7" target="jclQQDMFsEUQar5XZO0B-11" edge="1">
          <mxGeometry relative="1" as="geometry" />
        </mxCell>
        <mxCell id="jclQQDMFsEUQar5XZO0B-17" value="Microsoft Entra ID" style="text;html=1;align=center;verticalAlign=middle;resizable=0;points=[];autosize=1;strokeColor=none;fillColor=none;fontStyle=0;fontSize=16;fontColor=light-dark(#928dcb, #ededed);" parent="1" vertex="1">
          <mxGeometry x="540" y="425" width="150" height="30" as="geometry" />
        </mxCell>
        <mxCell id="jclQQDMFsEUQar5XZO0B-18" value="&lt;b&gt;App Registration 3&lt;/b&gt;&lt;div&gt;pour API Locale&lt;/div&gt;" style="rounded=0;whiteSpace=wrap;html=1;flipV=1;fillColor=#d5e8d4;strokeColor=none;glass=1;" parent="1" vertex="1">
          <mxGeometry x="940" y="520" width="120" height="40" as="geometry" />
        </mxCell>
        <mxCell id="jclQQDMFsEUQar5XZO0B-21" value="&lt;b&gt;App Registration 2&lt;/b&gt;&lt;div&gt;pour API principale&lt;/div&gt;" style="rounded=0;whiteSpace=wrap;html=1;flipV=1;fillColor=#d5e8d4;strokeColor=none;glass=1;" parent="1" vertex="1">
          <mxGeometry x="800" y="460" width="120" height="40" as="geometry" />
        </mxCell>
        <mxCell id="jclQQDMFsEUQar5XZO0B-22" value="&lt;b&gt;App Registration 1&lt;/b&gt;&lt;div&gt;pour frontend NextJS&lt;/div&gt;" style="rounded=0;whiteSpace=wrap;html=1;flipV=1;fillColor=#d5e8d4;strokeColor=none;glass=1;" parent="1" vertex="1">
          <mxGeometry x="870" y="590" width="120" height="40" as="geometry" />
        </mxCell>
        <mxCell id="jclQQDMFsEUQar5XZO0B-24" style="edgeStyle=orthogonalEdgeStyle;rounded=0;orthogonalLoop=1;jettySize=auto;html=1;entryX=0;entryY=0.5;entryDx=0;entryDy=0;" parent="1" source="jclQQDMFsEUQar5XZO0B-23" target="jclQQDMFsEUQar5XZO0B-18" edge="1">
          <mxGeometry relative="1" as="geometry" />
        </mxCell>
        <mxCell id="jclQQDMFsEUQar5XZO0B-25" style="edgeStyle=orthogonalEdgeStyle;rounded=0;orthogonalLoop=1;jettySize=auto;html=1;" parent="1" source="jclQQDMFsEUQar5XZO0B-23" target="jclQQDMFsEUQar5XZO0B-21" edge="1">
          <mxGeometry relative="1" as="geometry" />
        </mxCell>
        <mxCell id="jclQQDMFsEUQar5XZO0B-26" style="edgeStyle=orthogonalEdgeStyle;rounded=0;orthogonalLoop=1;jettySize=auto;html=1;entryX=0;entryY=0.5;entryDx=0;entryDy=0;" parent="1" source="jclQQDMFsEUQar5XZO0B-23" target="jclQQDMFsEUQar5XZO0B-22" edge="1">
          <mxGeometry relative="1" as="geometry" />
        </mxCell>
        <mxCell id="jclQQDMFsEUQar5XZO0B-23" value="&lt;b&gt;MS Entra ID&lt;/b&gt;" style="rounded=0;whiteSpace=wrap;html=1;fillColor=#fff2cc;strokeColor=none;glass=1;" parent="1" vertex="1">
          <mxGeometry x="590" y="520" width="120" height="40" as="geometry" />
        </mxCell>
        <mxCell id="jclQQDMFsEUQar5XZO0B-29" value="" style="curved=1;endArrow=classic;html=1;rounded=0;exitX=0.5;exitY=1;exitDx=0;exitDy=0;entryX=0;entryY=0.75;entryDx=0;entryDy=0;" parent="1" source="jclQQDMFsEUQar5XZO0B-4" target="jclQQDMFsEUQar5XZO0B-22" edge="1">
          <mxGeometry width="50" height="50" relative="1" as="geometry">
            <mxPoint x="220" y="575" as="sourcePoint" />
            <mxPoint x="270" y="525" as="targetPoint" />
            <Array as="points">
              <mxPoint x="170" y="550" />
              <mxPoint x="340" y="640" />
              <mxPoint x="590" y="650" />
            </Array>
          </mxGeometry>
        </mxCell>
        <mxCell id="jclQQDMFsEUQar5XZO0B-31" value="&lt;b&gt;1. MSAL.js&lt;/b&gt;&lt;div&gt;&lt;i&gt;Authentification&lt;/i&gt;&lt;/div&gt;" style="text;html=1;align=center;verticalAlign=middle;whiteSpace=wrap;rounded=0;fillColor=#f9f7ed;strokeColor=none;" parent="1" vertex="1">
          <mxGeometry x="330" y="620" width="120" height="30" as="geometry" />
        </mxCell>
        <mxCell id="jclQQDMFsEUQar5XZO0B-36" value="" style="curved=1;endArrow=classic;html=1;rounded=0;exitX=0.5;exitY=0;exitDx=0;exitDy=0;entryX=0;entryY=0.5;entryDx=0;entryDy=0;" parent="1" source="jclQQDMFsEUQar5XZO0B-4" target="jclQQDMFsEUQar5XZO0B-7" edge="1">
          <mxGeometry width="50" height="50" relative="1" as="geometry">
            <mxPoint x="150" y="370" as="sourcePoint" />
            <mxPoint x="200" y="320" as="targetPoint" />
            <Array as="points">
              <mxPoint x="200" y="370" />
              <mxPoint x="150" y="320" />
            </Array>
          </mxGeometry>
        </mxCell>
        <mxCell id="jclQQDMFsEUQar5XZO0B-37" value="&lt;b&gt;2. Envoie du token en entête des requêttes&lt;/b&gt;" style="text;html=1;align=center;verticalAlign=middle;whiteSpace=wrap;rounded=0;fillColor=#f9f7ed;strokeColor=none;" parent="1" vertex="1">
          <mxGeometry x="250" y="290" width="120" height="30" as="geometry" />
        </mxCell>
        <mxCell id="jclQQDMFsEUQar5XZO0B-38" value="&lt;b&gt;4. token d&#39;accès&lt;/b&gt;" style="text;html=1;align=center;verticalAlign=middle;whiteSpace=wrap;rounded=0;fillColor=#f9f7ed;strokeColor=none;" parent="1" vertex="1">
          <mxGeometry x="576" y="270" width="120" height="30" as="geometry" />
        </mxCell>
        <mxCell id="jclQQDMFsEUQar5XZO0B-41" value="" style="curved=1;endArrow=classic;html=1;rounded=0;entryX=0.5;entryY=0;entryDx=0;entryDy=0;exitX=1.004;exitY=-0.086;exitDx=0;exitDy=0;exitPerimeter=0;" parent="1" source="jclQQDMFsEUQar5XZO0B-8" target="jclQQDMFsEUQar5XZO0B-21" edge="1">
          <mxGeometry width="50" height="50" relative="1" as="geometry">
            <mxPoint x="490" y="390" as="sourcePoint" />
            <mxPoint x="540" y="340" as="targetPoint" />
            <Array as="points">
              <mxPoint x="820" y="390" />
            </Array>
          </mxGeometry>
        </mxCell>
        <mxCell id="jclQQDMFsEUQar5XZO0B-43" value="" style="curved=1;endArrow=classic;html=1;rounded=0;entryX=0.5;entryY=0;entryDx=0;entryDy=0;" parent="1" target="jclQQDMFsEUQar5XZO0B-18" edge="1">
          <mxGeometry width="50" height="50" relative="1" as="geometry">
            <mxPoint x="870" y="290" as="sourcePoint" />
            <mxPoint x="1155" y="448" as="targetPoint" />
            <Array as="points">
              <mxPoint x="930" y="350" />
              <mxPoint x="940" y="410" />
            </Array>
          </mxGeometry>
        </mxCell>
        <mxCell id="jclQQDMFsEUQar5XZO0B-42" value="&lt;b&gt;5. valider le token&lt;/b&gt;" style="text;html=1;align=center;verticalAlign=middle;whiteSpace=wrap;rounded=0;fillColor=#f9f7ed;strokeColor=none;" parent="1" vertex="1">
          <mxGeometry x="800" y="380" width="170" height="30" as="geometry" />
        </mxCell>
      </root>
    </mxGraphModel>
  </diagram>
  <diagram id="_D9zNgDMvsMB3CaNKi-8" name="SD_Auth-Multi-Company">
    <mxGraphModel grid="1" page="1" gridSize="10" guides="1" tooltips="1" connect="1" arrows="1" fold="1" pageScale="1" pageWidth="850" pageHeight="1100" math="0" shadow="0">
      <root>
        <mxCell id="0" />
        <mxCell id="1" parent="0" />
        <mxCell id="G68ypNQKPUaKY41bFIFY-1" value="Utilisateur" style="shape=umlLifeline;perimeter=lifelinePerimeter;whiteSpace=wrap;html=1;container=1;dropTarget=0;collapsible=0;recursiveResize=0;outlineConnect=0;portConstraint=eastwest;newEdgeStyle={&quot;curved&quot;:0,&quot;rounded&quot;:0};" vertex="1" parent="1">
          <mxGeometry y="300" width="100" height="880" as="geometry" />
        </mxCell>
        <mxCell id="G68ypNQKPUaKY41bFIFY-2" value="MS Entra ID" style="shape=umlLifeline;perimeter=lifelinePerimeter;whiteSpace=wrap;html=1;container=1;dropTarget=0;collapsible=0;recursiveResize=0;outlineConnect=0;portConstraint=eastwest;newEdgeStyle={&quot;curved&quot;:0,&quot;rounded&quot;:0};" vertex="1" parent="1">
          <mxGeometry x="263" y="300" width="100" height="890" as="geometry" />
        </mxCell>
        <mxCell id="G68ypNQKPUaKY41bFIFY-17" value="" style="html=1;points=[[0,0,0,0,5],[0,1,0,0,-5],[1,0,0,0,5],[1,1,0,0,-5]];perimeter=orthogonalPerimeter;outlineConnect=0;targetShapes=umlLifeline;portConstraint=eastwest;newEdgeStyle={&quot;curved&quot;:0,&quot;rounded&quot;:0};" vertex="1" parent="G68ypNQKPUaKY41bFIFY-2">
          <mxGeometry x="47" y="110" width="10" height="60" as="geometry" />
        </mxCell>
        <mxCell id="G68ypNQKPUaKY41bFIFY-18" value="OAuth 2.0" style="html=1;align=left;spacingLeft=2;endArrow=block;rounded=0;edgeStyle=orthogonalEdgeStyle;curved=0;rounded=0;" edge="1" target="G68ypNQKPUaKY41bFIFY-17" parent="G68ypNQKPUaKY41bFIFY-2" source="G68ypNQKPUaKY41bFIFY-17">
          <mxGeometry relative="1" as="geometry">
            <mxPoint x="197" y="200" as="sourcePoint" />
            <Array as="points">
              <mxPoint x="77" y="120" />
              <mxPoint x="77" y="140" />
            </Array>
          </mxGeometry>
        </mxCell>
        <mxCell id="G68ypNQKPUaKY41bFIFY-3" value="Application FrontEnd" style="shape=umlLifeline;perimeter=lifelinePerimeter;whiteSpace=wrap;html=1;container=1;dropTarget=0;collapsible=0;recursiveResize=0;outlineConnect=0;portConstraint=eastwest;newEdgeStyle={&quot;curved&quot;:0,&quot;rounded&quot;:0};" vertex="1" parent="1">
          <mxGeometry x="525" y="300" width="100" height="880" as="geometry" />
        </mxCell>
        <mxCell id="G68ypNQKPUaKY41bFIFY-7" value="" style="html=1;points=[[0,0,0,0,5],[0,1,0,0,-5],[1,0,0,0,5],[1,1,0,0,-5]];perimeter=orthogonalPerimeter;outlineConnect=0;targetShapes=umlLifeline;portConstraint=eastwest;newEdgeStyle={&quot;curved&quot;:0,&quot;rounded&quot;:0};" vertex="1" parent="G68ypNQKPUaKY41bFIFY-3">
          <mxGeometry x="45" y="70" width="10" height="100" as="geometry" />
        </mxCell>
        <mxCell id="G68ypNQKPUaKY41bFIFY-21" value="" style="html=1;points=[[0,0,0,0,5],[0,1,0,0,-5],[1,0,0,0,5],[1,1,0,0,-5]];perimeter=orthogonalPerimeter;outlineConnect=0;targetShapes=umlLifeline;portConstraint=eastwest;newEdgeStyle={&quot;curved&quot;:0,&quot;rounded&quot;:0};" vertex="1" parent="G68ypNQKPUaKY41bFIFY-3">
          <mxGeometry x="45" y="190" width="10" height="90" as="geometry" />
        </mxCell>
        <mxCell id="G68ypNQKPUaKY41bFIFY-38" value="" style="html=1;points=[[0,0,0,0,5],[0,1,0,0,-5],[1,0,0,0,5],[1,1,0,0,-5]];perimeter=orthogonalPerimeter;outlineConnect=0;targetShapes=umlLifeline;portConstraint=eastwest;newEdgeStyle={&quot;curved&quot;:0,&quot;rounded&quot;:0};" vertex="1" parent="G68ypNQKPUaKY41bFIFY-3">
          <mxGeometry x="45" y="350" width="10" height="50" as="geometry" />
        </mxCell>
        <mxCell id="G68ypNQKPUaKY41bFIFY-55" value="" style="html=1;points=[[0,0,0,0,5],[0,1,0,0,-5],[1,0,0,0,5],[1,1,0,0,-5]];perimeter=orthogonalPerimeter;outlineConnect=0;targetShapes=umlLifeline;portConstraint=eastwest;newEdgeStyle={&quot;curved&quot;:0,&quot;rounded&quot;:0};" vertex="1" parent="G68ypNQKPUaKY41bFIFY-3">
          <mxGeometry x="45" y="570" width="10" height="70" as="geometry" />
        </mxCell>
        <mxCell id="G68ypNQKPUaKY41bFIFY-57" style="edgeStyle=orthogonalEdgeStyle;rounded=0;orthogonalLoop=1;jettySize=auto;html=1;curved=0;" edge="1" parent="G68ypNQKPUaKY41bFIFY-3" source="G68ypNQKPUaKY41bFIFY-55" target="G68ypNQKPUaKY41bFIFY-55">
          <mxGeometry relative="1" as="geometry">
            <Array as="points">
              <mxPoint x="75" y="580" />
              <mxPoint x="75" y="615" />
            </Array>
          </mxGeometry>
        </mxCell>
        <mxCell id="G68ypNQKPUaKY41bFIFY-4" value="API Backend" style="shape=umlLifeline;perimeter=lifelinePerimeter;whiteSpace=wrap;html=1;container=1;dropTarget=0;collapsible=0;recursiveResize=0;outlineConnect=0;portConstraint=eastwest;newEdgeStyle={&quot;curved&quot;:0,&quot;rounded&quot;:0};" vertex="1" parent="1">
          <mxGeometry x="788" y="300" width="100" height="730" as="geometry" />
        </mxCell>
        <mxCell id="G68ypNQKPUaKY41bFIFY-28" value="" style="html=1;points=[[0,0,0,0,5],[0,1,0,0,-5],[1,0,0,0,5],[1,1,0,0,-5]];perimeter=orthogonalPerimeter;outlineConnect=0;targetShapes=umlLifeline;portConstraint=eastwest;newEdgeStyle={&quot;curved&quot;:0,&quot;rounded&quot;:0};" vertex="1" parent="G68ypNQKPUaKY41bFIFY-4">
          <mxGeometry x="45" y="190" width="10" height="100" as="geometry" />
        </mxCell>
        <mxCell id="G68ypNQKPUaKY41bFIFY-5" value="Basse de données" style="shape=umlLifeline;perimeter=lifelinePerimeter;whiteSpace=wrap;html=1;container=1;dropTarget=0;collapsible=0;recursiveResize=0;outlineConnect=0;portConstraint=eastwest;newEdgeStyle={&quot;curved&quot;:0,&quot;rounded&quot;:0};" vertex="1" parent="1">
          <mxGeometry x="1050" y="300" width="100" height="730" as="geometry" />
        </mxCell>
        <mxCell id="G68ypNQKPUaKY41bFIFY-29" value="" style="html=1;points=[[0,0,0,0,5],[0,1,0,0,-5],[1,0,0,0,5],[1,1,0,0,-5]];perimeter=orthogonalPerimeter;outlineConnect=0;targetShapes=umlLifeline;portConstraint=eastwest;newEdgeStyle={&quot;curved&quot;:0,&quot;rounded&quot;:0};" vertex="1" parent="G68ypNQKPUaKY41bFIFY-5">
          <mxGeometry x="45" y="190" width="10" height="100" as="geometry" />
        </mxCell>
        <mxCell id="G68ypNQKPUaKY41bFIFY-8" value="" style="html=1;verticalAlign=bottom;labelBackgroundColor=none;endArrow=block;endFill=1;rounded=0;" edge="1" parent="1">
          <mxGeometry width="160" relative="1" as="geometry">
            <mxPoint x="50" y="374" as="sourcePoint" />
            <mxPoint x="574.5000000000002" y="374" as="targetPoint" />
          </mxGeometry>
        </mxCell>
        <mxCell id="G68ypNQKPUaKY41bFIFY-9" value="Accède de à l&#39;application" style="text;html=1;align=center;verticalAlign=middle;resizable=0;points=[];autosize=1;strokeColor=none;fillColor=none;" vertex="1" parent="1">
          <mxGeometry x="160" y="350" width="160" height="30" as="geometry" />
        </mxCell>
        <mxCell id="G68ypNQKPUaKY41bFIFY-12" style="edgeStyle=orthogonalEdgeStyle;rounded=0;orthogonalLoop=1;jettySize=auto;html=1;curved=0;" edge="1" parent="1" source="G68ypNQKPUaKY41bFIFY-7" target="G68ypNQKPUaKY41bFIFY-2">
          <mxGeometry relative="1" as="geometry">
            <Array as="points">
              <mxPoint x="410" y="410" />
              <mxPoint x="410" y="410" />
            </Array>
          </mxGeometry>
        </mxCell>
        <mxCell id="G68ypNQKPUaKY41bFIFY-13" value="Authentification automatique via email user" style="text;html=1;align=center;verticalAlign=middle;resizable=0;points=[];autosize=1;strokeColor=none;fillColor=none;" vertex="1" parent="1">
          <mxGeometry x="310" y="380" width="250" height="30" as="geometry" />
        </mxCell>
        <mxCell id="G68ypNQKPUaKY41bFIFY-19" style="edgeStyle=orthogonalEdgeStyle;rounded=0;orthogonalLoop=1;jettySize=auto;html=1;curved=0;entryX=0;entryY=1;entryDx=0;entryDy=-5;entryPerimeter=0;exitX=1;exitY=1;exitDx=0;exitDy=-5;exitPerimeter=0;" edge="1" parent="1" source="G68ypNQKPUaKY41bFIFY-17" target="G68ypNQKPUaKY41bFIFY-7">
          <mxGeometry relative="1" as="geometry">
            <Array as="points">
              <mxPoint x="570" y="465" />
            </Array>
          </mxGeometry>
        </mxCell>
        <mxCell id="G68ypNQKPUaKY41bFIFY-20" value="token + Information utilisateur" style="text;html=1;align=center;verticalAlign=middle;resizable=0;points=[];autosize=1;strokeColor=none;fillColor=none;" vertex="1" parent="1">
          <mxGeometry x="365" y="440" width="180" height="30" as="geometry" />
        </mxCell>
        <mxCell id="G68ypNQKPUaKY41bFIFY-22" style="edgeStyle=orthogonalEdgeStyle;rounded=0;orthogonalLoop=1;jettySize=auto;html=1;curved=0;entryX=1.003;entryY=1.033;entryDx=0;entryDy=0;entryPerimeter=0;" edge="1" parent="1" source="G68ypNQKPUaKY41bFIFY-21" target="G68ypNQKPUaKY41bFIFY-24">
          <mxGeometry relative="1" as="geometry">
            <Array as="points">
              <mxPoint x="831" y="500" />
            </Array>
          </mxGeometry>
        </mxCell>
        <mxCell id="G68ypNQKPUaKY41bFIFY-24" value="&lt;font style=&quot;font-size: 11px;&quot;&gt;Récupération du profil utilisateur (M635UUID)&lt;/font&gt;" style="text;html=1;align=center;verticalAlign=middle;resizable=0;points=[];autosize=1;strokeColor=none;fillColor=none;" vertex="1" parent="1">
          <mxGeometry x="580" y="470" width="250" height="30" as="geometry" />
        </mxCell>
        <mxCell id="G68ypNQKPUaKY41bFIFY-30" value="&lt;font style=&quot;font-size: 11px;&quot;&gt;Interroge la base de données&lt;/font&gt;" style="text;html=1;align=center;verticalAlign=middle;resizable=0;points=[];autosize=1;strokeColor=none;fillColor=none;" vertex="1" parent="1">
          <mxGeometry x="880" y="500" width="170" height="30" as="geometry" />
        </mxCell>
        <mxCell id="G68ypNQKPUaKY41bFIFY-32" style="edgeStyle=orthogonalEdgeStyle;rounded=0;orthogonalLoop=1;jettySize=auto;html=1;curved=0;" edge="1" parent="1">
          <mxGeometry relative="1" as="geometry">
            <mxPoint x="842.9999999999998" y="528" as="sourcePoint" />
            <mxPoint x="1095" y="528" as="targetPoint" />
          </mxGeometry>
        </mxCell>
        <mxCell id="G68ypNQKPUaKY41bFIFY-33" style="edgeStyle=orthogonalEdgeStyle;rounded=0;orthogonalLoop=1;jettySize=auto;html=1;curved=0;" edge="1" parent="1">
          <mxGeometry relative="1" as="geometry">
            <mxPoint x="1095" y="569" as="sourcePoint" />
            <mxPoint x="840" y="569" as="targetPoint" />
            <Array as="points">
              <mxPoint x="1040" y="569" />
              <mxPoint x="1040" y="569" />
            </Array>
          </mxGeometry>
        </mxCell>
        <mxCell id="G68ypNQKPUaKY41bFIFY-34" value="&lt;font style=&quot;font-size: 11px;&quot;&gt;Retourne données&lt;/font&gt;" style="text;html=1;align=center;verticalAlign=middle;resizable=0;points=[];autosize=1;strokeColor=none;fillColor=none;" vertex="1" parent="1">
          <mxGeometry x="918" y="538" width="110" height="30" as="geometry" />
        </mxCell>
        <mxCell id="G68ypNQKPUaKY41bFIFY-35" value="&lt;font style=&quot;font-size: 11px;&quot;&gt;Profil avec droits d&#39;accès (role, sociétés, etc&lt;/font&gt;" style="text;html=1;align=center;verticalAlign=middle;resizable=0;points=[];autosize=1;strokeColor=none;fillColor=none;" vertex="1" parent="1">
          <mxGeometry x="585" y="550" width="240" height="30" as="geometry" />
        </mxCell>
        <mxCell id="G68ypNQKPUaKY41bFIFY-37" style="edgeStyle=orthogonalEdgeStyle;rounded=0;orthogonalLoop=1;jettySize=auto;html=1;curved=0;" edge="1" parent="1">
          <mxGeometry relative="1" as="geometry">
            <mxPoint x="830" y="580" as="sourcePoint" />
            <mxPoint x="580" y="580" as="targetPoint" />
            <Array as="points">
              <mxPoint x="780" y="580" />
              <mxPoint x="780" y="580" />
            </Array>
          </mxGeometry>
        </mxCell>
        <mxCell id="G68ypNQKPUaKY41bFIFY-41" value="si non Admin" style="shape=umlFrame;whiteSpace=wrap;html=1;pointerEvents=0;width=160;height=30;" vertex="1" parent="1">
          <mxGeometry x="-10" y="600" width="1230" height="400" as="geometry" />
        </mxCell>
        <mxCell id="G68ypNQKPUaKY41bFIFY-42" style="edgeStyle=orthogonalEdgeStyle;rounded=0;orthogonalLoop=1;jettySize=auto;html=1;curved=0;" edge="1" parent="1" source="G68ypNQKPUaKY41bFIFY-38" target="G68ypNQKPUaKY41bFIFY-1">
          <mxGeometry relative="1" as="geometry">
            <Array as="points">
              <mxPoint x="460" y="680" />
              <mxPoint x="460" y="680" />
            </Array>
          </mxGeometry>
        </mxCell>
        <mxCell id="G68ypNQKPUaKY41bFIFY-43" value="Accès accordé pour la société en question" style="text;html=1;align=center;verticalAlign=middle;resizable=0;points=[];autosize=1;strokeColor=none;fillColor=none;" vertex="1" parent="1">
          <mxGeometry x="200" y="650" width="250" height="30" as="geometry" />
        </mxCell>
        <mxCell id="G68ypNQKPUaKY41bFIFY-44" value="a accès à une seul société" style="shape=umlFrame;whiteSpace=wrap;html=1;pointerEvents=0;width=160;height=20;" vertex="1" parent="1">
          <mxGeometry x="30" y="640" width="810" height="70" as="geometry" />
        </mxCell>
        <mxCell id="G68ypNQKPUaKY41bFIFY-45" value="" style="html=1;points=[[0,0,0,0,5],[0,1,0,0,-5],[1,0,0,0,5],[1,1,0,0,-5]];perimeter=orthogonalPerimeter;outlineConnect=0;targetShapes=umlLifeline;portConstraint=eastwest;newEdgeStyle={&quot;curved&quot;:0,&quot;rounded&quot;:0};" vertex="1" parent="1">
          <mxGeometry x="570" y="740" width="10" height="100" as="geometry" />
        </mxCell>
        <mxCell id="G68ypNQKPUaKY41bFIFY-46" style="edgeStyle=orthogonalEdgeStyle;rounded=0;orthogonalLoop=1;jettySize=auto;html=1;curved=0;" edge="1" parent="1">
          <mxGeometry relative="1" as="geometry">
            <mxPoint x="570" y="755" as="sourcePoint" />
            <mxPoint x="49" y="755" as="targetPoint" />
            <Array as="points">
              <mxPoint x="460" y="755" />
              <mxPoint x="460" y="755" />
            </Array>
          </mxGeometry>
        </mxCell>
        <mxCell id="G68ypNQKPUaKY41bFIFY-47" value="Demander à l&#39;utilisateur la société à laquelle il veut accéder" style="text;html=1;align=center;verticalAlign=middle;resizable=0;points=[];autosize=1;strokeColor=none;fillColor=none;" vertex="1" parent="1">
          <mxGeometry x="155" y="727" width="340" height="30" as="geometry" />
        </mxCell>
        <mxCell id="G68ypNQKPUaKY41bFIFY-48" style="edgeStyle=orthogonalEdgeStyle;rounded=0;orthogonalLoop=1;jettySize=auto;html=1;curved=0;entryX=0;entryY=1;entryDx=0;entryDy=-5;entryPerimeter=0;" edge="1" parent="1">
          <mxGeometry relative="1" as="geometry">
            <mxPoint x="49.16666666666674" y="790" as="sourcePoint" />
            <mxPoint x="570" y="790" as="targetPoint" />
            <Array as="points">
              <mxPoint x="110" y="790" />
              <mxPoint x="110" y="790" />
            </Array>
          </mxGeometry>
        </mxCell>
        <mxCell id="G68ypNQKPUaKY41bFIFY-49" value="Choix de la société" style="text;html=1;align=center;verticalAlign=middle;resizable=0;points=[];autosize=1;strokeColor=none;fillColor=none;" vertex="1" parent="1">
          <mxGeometry x="265" y="769" width="120" height="30" as="geometry" />
        </mxCell>
        <mxCell id="G68ypNQKPUaKY41bFIFY-50" style="edgeStyle=orthogonalEdgeStyle;rounded=0;orthogonalLoop=1;jettySize=auto;html=1;curved=0;" edge="1" parent="1">
          <mxGeometry relative="1" as="geometry">
            <mxPoint x="570" y="829" as="sourcePoint" />
            <mxPoint x="49" y="829" as="targetPoint" />
            <Array as="points">
              <mxPoint x="460" y="829" />
              <mxPoint x="460" y="829" />
            </Array>
          </mxGeometry>
        </mxCell>
        <mxCell id="G68ypNQKPUaKY41bFIFY-51" value="Accès accordé pour la société en question" style="text;html=1;align=center;verticalAlign=middle;resizable=0;points=[];autosize=1;strokeColor=none;fillColor=none;" vertex="1" parent="1">
          <mxGeometry x="200" y="799" width="250" height="30" as="geometry" />
        </mxCell>
        <mxCell id="G68ypNQKPUaKY41bFIFY-53" value="Au cours de son activité, il peut demander à accéder à une autre société" style="text;html=1;align=center;verticalAlign=middle;resizable=0;points=[];autosize=1;strokeColor=none;fillColor=none;" vertex="1" parent="1">
          <mxGeometry x="115" y="860" width="410" height="30" as="geometry" />
        </mxCell>
        <mxCell id="G68ypNQKPUaKY41bFIFY-54" style="edgeStyle=orthogonalEdgeStyle;rounded=0;orthogonalLoop=1;jettySize=auto;html=1;curved=0;entryX=0;entryY=1;entryDx=0;entryDy=-5;entryPerimeter=0;" edge="1" parent="1">
          <mxGeometry relative="1" as="geometry">
            <mxPoint x="49.16666666666674" y="890" as="sourcePoint" />
            <mxPoint x="570" y="890" as="targetPoint" />
            <Array as="points">
              <mxPoint x="110" y="890" />
              <mxPoint x="110" y="890" />
            </Array>
          </mxGeometry>
        </mxCell>
        <mxCell id="G68ypNQKPUaKY41bFIFY-58" value="Switch l&#39;utilisateur vers l&#39;autre société" style="text;html=1;align=center;verticalAlign=middle;resizable=0;points=[];autosize=1;strokeColor=none;fillColor=none;" vertex="1" parent="1">
          <mxGeometry x="585" y="880" width="220" height="30" as="geometry" />
        </mxCell>
        <mxCell id="G68ypNQKPUaKY41bFIFY-59" style="edgeStyle=orthogonalEdgeStyle;rounded=0;orthogonalLoop=1;jettySize=auto;html=1;curved=0;" edge="1" parent="1">
          <mxGeometry relative="1" as="geometry">
            <mxPoint x="570" y="930" as="sourcePoint" />
            <mxPoint x="49" y="930" as="targetPoint" />
            <Array as="points">
              <mxPoint x="460" y="930" />
              <mxPoint x="460" y="930" />
            </Array>
          </mxGeometry>
        </mxCell>
        <mxCell id="G68ypNQKPUaKY41bFIFY-60" value="Accès accordé pour la société en question" style="text;html=1;align=center;verticalAlign=middle;resizable=0;points=[];autosize=1;strokeColor=none;fillColor=none;" vertex="1" parent="1">
          <mxGeometry x="200" y="900" width="250" height="30" as="geometry" />
        </mxCell>
        <mxCell id="G68ypNQKPUaKY41bFIFY-61" value="Pour chaque demande du client, l&#39;identifiant de la société est envoyé pour les vérifications côté Backend" style="html=1;whiteSpace=wrap;" vertex="1" parent="1">
          <mxGeometry x="870" y="840" width="310" height="50" as="geometry" />
        </mxCell>
        <mxCell id="G68ypNQKPUaKY41bFIFY-62" value="si Admin" style="shape=umlFrame;whiteSpace=wrap;html=1;pointerEvents=0;width=160;height=30;" vertex="1" parent="1">
          <mxGeometry x="-10" y="1030" width="1230" height="160" as="geometry" />
        </mxCell>
        <mxCell id="G68ypNQKPUaKY41bFIFY-63" value="" style="html=1;points=[[0,0,0,0,5],[0,1,0,0,-5],[1,0,0,0,5],[1,1,0,0,-5]];perimeter=orthogonalPerimeter;outlineConnect=0;targetShapes=umlLifeline;portConstraint=eastwest;newEdgeStyle={&quot;curved&quot;:0,&quot;rounded&quot;:0};" vertex="1" parent="1">
          <mxGeometry x="570" y="1060" width="10" height="70" as="geometry" />
        </mxCell>
        <mxCell id="G68ypNQKPUaKY41bFIFY-64" style="edgeStyle=orthogonalEdgeStyle;rounded=0;orthogonalLoop=1;jettySize=auto;html=1;curved=0;" edge="1" parent="1">
          <mxGeometry relative="1" as="geometry">
            <mxPoint x="570" y="1098" as="sourcePoint" />
            <mxPoint x="49" y="1098" as="targetPoint" />
            <Array as="points">
              <mxPoint x="460" y="1098" />
              <mxPoint x="460" y="1098" />
            </Array>
          </mxGeometry>
        </mxCell>
        <mxCell id="G68ypNQKPUaKY41bFIFY-65" value="Accès à une autre interface ou il peut manipuler les données en rapport&amp;nbsp;&lt;div&gt;avec toutes les sociétés du Système&lt;/div&gt;" style="text;html=1;align=center;verticalAlign=middle;resizable=0;points=[];autosize=1;strokeColor=none;fillColor=none;" vertex="1" parent="1">
          <mxGeometry x="120" y="1061" width="410" height="40" as="geometry" />
        </mxCell>
      </root>
    </mxGraphModel>
  </diagram>
  <diagram name="Copy of SD_Auth-Multi-Company" id="SgYBozZpddlGV7S8q997">
    <mxGraphModel dx="4915" dy="1958" grid="1" gridSize="10" guides="1" tooltips="1" connect="1" arrows="1" fold="1" page="1" pageScale="1" pageWidth="850" pageHeight="1100" math="0" shadow="0">
      <root>
        <mxCell id="M57DeVq3OlQzC3RYz_jO-0" />
        <mxCell id="M57DeVq3OlQzC3RYz_jO-1" parent="M57DeVq3OlQzC3RYz_jO-0" />
        <mxCell id="M57DeVq3OlQzC3RYz_jO-2" value="Utilisateur" style="shape=umlLifeline;perimeter=lifelinePerimeter;whiteSpace=wrap;html=1;container=1;dropTarget=0;collapsible=0;recursiveResize=0;outlineConnect=0;portConstraint=eastwest;newEdgeStyle={&quot;curved&quot;:0,&quot;rounded&quot;:0};fillColor=#FFE6E2;" vertex="1" parent="M57DeVq3OlQzC3RYz_jO-1">
          <mxGeometry y="300" width="100" height="880" as="geometry" />
        </mxCell>
        <mxCell id="M57DeVq3OlQzC3RYz_jO-3" value="MS Entra ID" style="shape=umlLifeline;perimeter=lifelinePerimeter;whiteSpace=wrap;html=1;container=1;dropTarget=0;collapsible=0;recursiveResize=0;outlineConnect=0;portConstraint=eastwest;newEdgeStyle={&quot;curved&quot;:0,&quot;rounded&quot;:0};" vertex="1" parent="M57DeVq3OlQzC3RYz_jO-1">
          <mxGeometry x="263" y="300" width="100" height="890" as="geometry" />
        </mxCell>
        <mxCell id="M57DeVq3OlQzC3RYz_jO-4" value="" style="html=1;points=[[0,0,0,0,5],[0,1,0,0,-5],[1,0,0,0,5],[1,1,0,0,-5]];perimeter=orthogonalPerimeter;outlineConnect=0;targetShapes=umlLifeline;portConstraint=eastwest;newEdgeStyle={&quot;curved&quot;:0,&quot;rounded&quot;:0};" vertex="1" parent="M57DeVq3OlQzC3RYz_jO-3">
          <mxGeometry x="47" y="110" width="10" height="60" as="geometry" />
        </mxCell>
        <mxCell id="M57DeVq3OlQzC3RYz_jO-5" value="OAuth 2.0" style="html=1;align=left;spacingLeft=2;endArrow=block;rounded=0;edgeStyle=orthogonalEdgeStyle;curved=0;rounded=0;" edge="1" parent="M57DeVq3OlQzC3RYz_jO-3" source="M57DeVq3OlQzC3RYz_jO-4" target="M57DeVq3OlQzC3RYz_jO-4">
          <mxGeometry relative="1" as="geometry">
            <mxPoint x="197" y="200" as="sourcePoint" />
            <Array as="points">
              <mxPoint x="77" y="120" />
              <mxPoint x="77" y="140" />
            </Array>
          </mxGeometry>
        </mxCell>
        <mxCell id="M57DeVq3OlQzC3RYz_jO-6" value="Application FrontEnd" style="shape=umlLifeline;perimeter=lifelinePerimeter;whiteSpace=wrap;html=1;container=1;dropTarget=0;collapsible=0;recursiveResize=0;outlineConnect=0;portConstraint=eastwest;newEdgeStyle={&quot;curved&quot;:0,&quot;rounded&quot;:0};fillColor=#FFE6CC;" vertex="1" parent="M57DeVq3OlQzC3RYz_jO-1">
          <mxGeometry x="525" y="300" width="100" height="880" as="geometry" />
        </mxCell>
        <mxCell id="M57DeVq3OlQzC3RYz_jO-7" value="" style="html=1;points=[[0,0,0,0,5],[0,1,0,0,-5],[1,0,0,0,5],[1,1,0,0,-5]];perimeter=orthogonalPerimeter;outlineConnect=0;targetShapes=umlLifeline;portConstraint=eastwest;newEdgeStyle={&quot;curved&quot;:0,&quot;rounded&quot;:0};" vertex="1" parent="M57DeVq3OlQzC3RYz_jO-6">
          <mxGeometry x="45" y="70" width="10" height="100" as="geometry" />
        </mxCell>
        <mxCell id="M57DeVq3OlQzC3RYz_jO-8" value="" style="html=1;points=[[0,0,0,0,5],[0,1,0,0,-5],[1,0,0,0,5],[1,1,0,0,-5]];perimeter=orthogonalPerimeter;outlineConnect=0;targetShapes=umlLifeline;portConstraint=eastwest;newEdgeStyle={&quot;curved&quot;:0,&quot;rounded&quot;:0};" vertex="1" parent="M57DeVq3OlQzC3RYz_jO-6">
          <mxGeometry x="45" y="190" width="10" height="90" as="geometry" />
        </mxCell>
        <mxCell id="M57DeVq3OlQzC3RYz_jO-9" value="" style="html=1;points=[[0,0,0,0,5],[0,1,0,0,-5],[1,0,0,0,5],[1,1,0,0,-5]];perimeter=orthogonalPerimeter;outlineConnect=0;targetShapes=umlLifeline;portConstraint=eastwest;newEdgeStyle={&quot;curved&quot;:0,&quot;rounded&quot;:0};" vertex="1" parent="M57DeVq3OlQzC3RYz_jO-6">
          <mxGeometry x="45" y="350" width="10" height="50" as="geometry" />
        </mxCell>
        <mxCell id="M57DeVq3OlQzC3RYz_jO-10" value="" style="html=1;points=[[0,0,0,0,5],[0,1,0,0,-5],[1,0,0,0,5],[1,1,0,0,-5]];perimeter=orthogonalPerimeter;outlineConnect=0;targetShapes=umlLifeline;portConstraint=eastwest;newEdgeStyle={&quot;curved&quot;:0,&quot;rounded&quot;:0};" vertex="1" parent="M57DeVq3OlQzC3RYz_jO-6">
          <mxGeometry x="45" y="570" width="10" height="70" as="geometry" />
        </mxCell>
        <mxCell id="M57DeVq3OlQzC3RYz_jO-11" style="edgeStyle=orthogonalEdgeStyle;rounded=0;orthogonalLoop=1;jettySize=auto;html=1;curved=0;" edge="1" parent="M57DeVq3OlQzC3RYz_jO-6" source="M57DeVq3OlQzC3RYz_jO-10" target="M57DeVq3OlQzC3RYz_jO-10">
          <mxGeometry relative="1" as="geometry">
            <Array as="points">
              <mxPoint x="75" y="580" />
              <mxPoint x="75" y="615" />
            </Array>
          </mxGeometry>
        </mxCell>
        <mxCell id="M57DeVq3OlQzC3RYz_jO-12" value="API Backend" style="shape=umlLifeline;perimeter=lifelinePerimeter;whiteSpace=wrap;html=1;container=1;dropTarget=0;collapsible=0;recursiveResize=0;outlineConnect=0;portConstraint=eastwest;newEdgeStyle={&quot;curved&quot;:0,&quot;rounded&quot;:0};fillColor=#FFB570;" vertex="1" parent="M57DeVq3OlQzC3RYz_jO-1">
          <mxGeometry x="788" y="300" width="100" height="730" as="geometry" />
        </mxCell>
        <mxCell id="M57DeVq3OlQzC3RYz_jO-13" value="" style="html=1;points=[[0,0,0,0,5],[0,1,0,0,-5],[1,0,0,0,5],[1,1,0,0,-5]];perimeter=orthogonalPerimeter;outlineConnect=0;targetShapes=umlLifeline;portConstraint=eastwest;newEdgeStyle={&quot;curved&quot;:0,&quot;rounded&quot;:0};" vertex="1" parent="M57DeVq3OlQzC3RYz_jO-12">
          <mxGeometry x="45" y="190" width="10" height="100" as="geometry" />
        </mxCell>
        <mxCell id="M57DeVq3OlQzC3RYz_jO-14" value="Basse de données" style="shape=umlLifeline;perimeter=lifelinePerimeter;whiteSpace=wrap;html=1;container=1;dropTarget=0;collapsible=0;recursiveResize=0;outlineConnect=0;portConstraint=eastwest;newEdgeStyle={&quot;curved&quot;:0,&quot;rounded&quot;:0};fillColor=#EA6B66;" vertex="1" parent="M57DeVq3OlQzC3RYz_jO-1">
          <mxGeometry x="1050" y="300" width="100" height="730" as="geometry" />
        </mxCell>
        <mxCell id="M57DeVq3OlQzC3RYz_jO-15" value="" style="html=1;points=[[0,0,0,0,5],[0,1,0,0,-5],[1,0,0,0,5],[1,1,0,0,-5]];perimeter=orthogonalPerimeter;outlineConnect=0;targetShapes=umlLifeline;portConstraint=eastwest;newEdgeStyle={&quot;curved&quot;:0,&quot;rounded&quot;:0};" vertex="1" parent="M57DeVq3OlQzC3RYz_jO-14">
          <mxGeometry x="45" y="190" width="10" height="100" as="geometry" />
        </mxCell>
        <mxCell id="M57DeVq3OlQzC3RYz_jO-16" value="" style="html=1;verticalAlign=bottom;labelBackgroundColor=none;endArrow=block;endFill=1;rounded=0;" edge="1" parent="M57DeVq3OlQzC3RYz_jO-1">
          <mxGeometry width="160" relative="1" as="geometry">
            <mxPoint x="50" y="374" as="sourcePoint" />
            <mxPoint x="574.5000000000002" y="374" as="targetPoint" />
          </mxGeometry>
        </mxCell>
        <mxCell id="M57DeVq3OlQzC3RYz_jO-17" value="Accède de à l&#39;application" style="text;html=1;align=center;verticalAlign=middle;resizable=0;points=[];autosize=1;strokeColor=none;fillColor=none;" vertex="1" parent="M57DeVq3OlQzC3RYz_jO-1">
          <mxGeometry x="160" y="350" width="160" height="30" as="geometry" />
        </mxCell>
        <mxCell id="M57DeVq3OlQzC3RYz_jO-18" style="edgeStyle=orthogonalEdgeStyle;rounded=0;orthogonalLoop=1;jettySize=auto;html=1;curved=0;" edge="1" parent="M57DeVq3OlQzC3RYz_jO-1" source="M57DeVq3OlQzC3RYz_jO-7" target="M57DeVq3OlQzC3RYz_jO-3">
          <mxGeometry relative="1" as="geometry">
            <Array as="points">
              <mxPoint x="410" y="410" />
              <mxPoint x="410" y="410" />
            </Array>
          </mxGeometry>
        </mxCell>
        <mxCell id="M57DeVq3OlQzC3RYz_jO-19" value="Authentification automatique via email user" style="text;html=1;align=center;verticalAlign=middle;resizable=0;points=[];autosize=1;strokeColor=none;fillColor=none;" vertex="1" parent="M57DeVq3OlQzC3RYz_jO-1">
          <mxGeometry x="310" y="380" width="250" height="30" as="geometry" />
        </mxCell>
        <mxCell id="M57DeVq3OlQzC3RYz_jO-20" style="edgeStyle=orthogonalEdgeStyle;rounded=0;orthogonalLoop=1;jettySize=auto;html=1;curved=0;entryX=0;entryY=1;entryDx=0;entryDy=-5;entryPerimeter=0;exitX=1;exitY=1;exitDx=0;exitDy=-5;exitPerimeter=0;" edge="1" parent="M57DeVq3OlQzC3RYz_jO-1" source="M57DeVq3OlQzC3RYz_jO-4" target="M57DeVq3OlQzC3RYz_jO-7">
          <mxGeometry relative="1" as="geometry">
            <Array as="points">
              <mxPoint x="570" y="465" />
            </Array>
          </mxGeometry>
        </mxCell>
        <mxCell id="M57DeVq3OlQzC3RYz_jO-21" value="token + Information utilisateur" style="text;html=1;align=center;verticalAlign=middle;resizable=0;points=[];autosize=1;strokeColor=none;fillColor=none;" vertex="1" parent="M57DeVq3OlQzC3RYz_jO-1">
          <mxGeometry x="365" y="440" width="180" height="30" as="geometry" />
        </mxCell>
        <mxCell id="M57DeVq3OlQzC3RYz_jO-22" style="edgeStyle=orthogonalEdgeStyle;rounded=0;orthogonalLoop=1;jettySize=auto;html=1;curved=0;entryX=1.003;entryY=1.033;entryDx=0;entryDy=0;entryPerimeter=0;" edge="1" parent="M57DeVq3OlQzC3RYz_jO-1" source="M57DeVq3OlQzC3RYz_jO-8" target="M57DeVq3OlQzC3RYz_jO-23">
          <mxGeometry relative="1" as="geometry">
            <Array as="points">
              <mxPoint x="831" y="500" />
            </Array>
          </mxGeometry>
        </mxCell>
        <mxCell id="M57DeVq3OlQzC3RYz_jO-23" value="&lt;font style=&quot;font-size: 11px;&quot;&gt;Récupération du profil utilisateur (M635UUID)&lt;/font&gt;" style="text;html=1;align=center;verticalAlign=middle;resizable=0;points=[];autosize=1;strokeColor=none;fillColor=none;" vertex="1" parent="M57DeVq3OlQzC3RYz_jO-1">
          <mxGeometry x="580" y="470" width="250" height="30" as="geometry" />
        </mxCell>
        <mxCell id="M57DeVq3OlQzC3RYz_jO-24" value="&lt;font style=&quot;font-size: 11px;&quot;&gt;Interroge la base de données&lt;/font&gt;" style="text;html=1;align=center;verticalAlign=middle;resizable=0;points=[];autosize=1;strokeColor=none;fillColor=none;" vertex="1" parent="M57DeVq3OlQzC3RYz_jO-1">
          <mxGeometry x="880" y="500" width="170" height="30" as="geometry" />
        </mxCell>
        <mxCell id="M57DeVq3OlQzC3RYz_jO-25" style="edgeStyle=orthogonalEdgeStyle;rounded=0;orthogonalLoop=1;jettySize=auto;html=1;curved=0;" edge="1" parent="M57DeVq3OlQzC3RYz_jO-1">
          <mxGeometry relative="1" as="geometry">
            <mxPoint x="842.9999999999998" y="528" as="sourcePoint" />
            <mxPoint x="1095" y="528" as="targetPoint" />
          </mxGeometry>
        </mxCell>
        <mxCell id="M57DeVq3OlQzC3RYz_jO-26" style="edgeStyle=orthogonalEdgeStyle;rounded=0;orthogonalLoop=1;jettySize=auto;html=1;curved=0;" edge="1" parent="M57DeVq3OlQzC3RYz_jO-1">
          <mxGeometry relative="1" as="geometry">
            <mxPoint x="1095" y="569" as="sourcePoint" />
            <mxPoint x="840" y="569" as="targetPoint" />
            <Array as="points">
              <mxPoint x="1040" y="569" />
              <mxPoint x="1040" y="569" />
            </Array>
          </mxGeometry>
        </mxCell>
        <mxCell id="M57DeVq3OlQzC3RYz_jO-27" value="&lt;font style=&quot;font-size: 11px;&quot;&gt;Retourne données&lt;/font&gt;" style="text;html=1;align=center;verticalAlign=middle;resizable=0;points=[];autosize=1;strokeColor=none;fillColor=none;" vertex="1" parent="M57DeVq3OlQzC3RYz_jO-1">
          <mxGeometry x="918" y="538" width="110" height="30" as="geometry" />
        </mxCell>
        <mxCell id="M57DeVq3OlQzC3RYz_jO-28" value="&lt;font style=&quot;font-size: 11px;&quot;&gt;Profil avec droits d&#39;accès (role, sociétés, etc&lt;/font&gt;" style="text;html=1;align=center;verticalAlign=middle;resizable=0;points=[];autosize=1;strokeColor=none;fillColor=none;" vertex="1" parent="M57DeVq3OlQzC3RYz_jO-1">
          <mxGeometry x="585" y="550" width="240" height="30" as="geometry" />
        </mxCell>
        <mxCell id="M57DeVq3OlQzC3RYz_jO-29" style="edgeStyle=orthogonalEdgeStyle;rounded=0;orthogonalLoop=1;jettySize=auto;html=1;curved=0;" edge="1" parent="M57DeVq3OlQzC3RYz_jO-1">
          <mxGeometry relative="1" as="geometry">
            <mxPoint x="830" y="580" as="sourcePoint" />
            <mxPoint x="580" y="580" as="targetPoint" />
            <Array as="points">
              <mxPoint x="780" y="580" />
              <mxPoint x="780" y="580" />
            </Array>
          </mxGeometry>
        </mxCell>
        <mxCell id="M57DeVq3OlQzC3RYz_jO-30" value="si non Admin" style="shape=umlFrame;whiteSpace=wrap;html=1;pointerEvents=0;width=160;height=30;" vertex="1" parent="M57DeVq3OlQzC3RYz_jO-1">
          <mxGeometry x="-10" y="600" width="1230" height="400" as="geometry" />
        </mxCell>
        <mxCell id="M57DeVq3OlQzC3RYz_jO-31" style="edgeStyle=orthogonalEdgeStyle;rounded=0;orthogonalLoop=1;jettySize=auto;html=1;curved=0;" edge="1" parent="M57DeVq3OlQzC3RYz_jO-1" source="M57DeVq3OlQzC3RYz_jO-9" target="M57DeVq3OlQzC3RYz_jO-2">
          <mxGeometry relative="1" as="geometry">
            <Array as="points">
              <mxPoint x="460" y="680" />
              <mxPoint x="460" y="680" />
            </Array>
          </mxGeometry>
        </mxCell>
        <mxCell id="M57DeVq3OlQzC3RYz_jO-32" value="Accès accordé pour la société en question" style="text;html=1;align=center;verticalAlign=middle;resizable=0;points=[];autosize=1;strokeColor=none;fillColor=none;" vertex="1" parent="M57DeVq3OlQzC3RYz_jO-1">
          <mxGeometry x="200" y="650" width="250" height="30" as="geometry" />
        </mxCell>
        <mxCell id="M57DeVq3OlQzC3RYz_jO-33" value="a accès à une seul société" style="shape=umlFrame;whiteSpace=wrap;html=1;pointerEvents=0;width=160;height=20;" vertex="1" parent="M57DeVq3OlQzC3RYz_jO-1">
          <mxGeometry x="30" y="640" width="810" height="70" as="geometry" />
        </mxCell>
        <mxCell id="M57DeVq3OlQzC3RYz_jO-34" value="" style="html=1;points=[[0,0,0,0,5],[0,1,0,0,-5],[1,0,0,0,5],[1,1,0,0,-5]];perimeter=orthogonalPerimeter;outlineConnect=0;targetShapes=umlLifeline;portConstraint=eastwest;newEdgeStyle={&quot;curved&quot;:0,&quot;rounded&quot;:0};" vertex="1" parent="M57DeVq3OlQzC3RYz_jO-1">
          <mxGeometry x="570" y="740" width="10" height="100" as="geometry" />
        </mxCell>
        <mxCell id="M57DeVq3OlQzC3RYz_jO-35" style="edgeStyle=orthogonalEdgeStyle;rounded=0;orthogonalLoop=1;jettySize=auto;html=1;curved=0;" edge="1" parent="M57DeVq3OlQzC3RYz_jO-1">
          <mxGeometry relative="1" as="geometry">
            <mxPoint x="570" y="755" as="sourcePoint" />
            <mxPoint x="49" y="755" as="targetPoint" />
            <Array as="points">
              <mxPoint x="460" y="755" />
              <mxPoint x="460" y="755" />
            </Array>
          </mxGeometry>
        </mxCell>
        <mxCell id="M57DeVq3OlQzC3RYz_jO-36" value="Demander à l&#39;utilisateur la société à laquelle il veut accéder" style="text;html=1;align=center;verticalAlign=middle;resizable=0;points=[];autosize=1;strokeColor=none;fillColor=none;" vertex="1" parent="M57DeVq3OlQzC3RYz_jO-1">
          <mxGeometry x="155" y="727" width="340" height="30" as="geometry" />
        </mxCell>
        <mxCell id="M57DeVq3OlQzC3RYz_jO-37" style="edgeStyle=orthogonalEdgeStyle;rounded=0;orthogonalLoop=1;jettySize=auto;html=1;curved=0;entryX=0;entryY=1;entryDx=0;entryDy=-5;entryPerimeter=0;" edge="1" parent="M57DeVq3OlQzC3RYz_jO-1">
          <mxGeometry relative="1" as="geometry">
            <mxPoint x="49.16666666666674" y="790" as="sourcePoint" />
            <mxPoint x="570" y="790" as="targetPoint" />
            <Array as="points">
              <mxPoint x="110" y="790" />
              <mxPoint x="110" y="790" />
            </Array>
          </mxGeometry>
        </mxCell>
        <mxCell id="M57DeVq3OlQzC3RYz_jO-38" value="Choix de la société" style="text;html=1;align=center;verticalAlign=middle;resizable=0;points=[];autosize=1;strokeColor=none;fillColor=none;" vertex="1" parent="M57DeVq3OlQzC3RYz_jO-1">
          <mxGeometry x="265" y="769" width="120" height="30" as="geometry" />
        </mxCell>
        <mxCell id="M57DeVq3OlQzC3RYz_jO-39" style="edgeStyle=orthogonalEdgeStyle;rounded=0;orthogonalLoop=1;jettySize=auto;html=1;curved=0;" edge="1" parent="M57DeVq3OlQzC3RYz_jO-1">
          <mxGeometry relative="1" as="geometry">
            <mxPoint x="570" y="829" as="sourcePoint" />
            <mxPoint x="49" y="829" as="targetPoint" />
            <Array as="points">
              <mxPoint x="460" y="829" />
              <mxPoint x="460" y="829" />
            </Array>
          </mxGeometry>
        </mxCell>
        <mxCell id="M57DeVq3OlQzC3RYz_jO-40" value="Accès accordé pour la société en question" style="text;html=1;align=center;verticalAlign=middle;resizable=0;points=[];autosize=1;strokeColor=none;fillColor=none;" vertex="1" parent="M57DeVq3OlQzC3RYz_jO-1">
          <mxGeometry x="200" y="799" width="250" height="30" as="geometry" />
        </mxCell>
        <mxCell id="M57DeVq3OlQzC3RYz_jO-41" value="Au cours de son activité, il peut demander à accéder à une autre société" style="text;html=1;align=center;verticalAlign=middle;resizable=0;points=[];autosize=1;strokeColor=none;fillColor=none;" vertex="1" parent="M57DeVq3OlQzC3RYz_jO-1">
          <mxGeometry x="115" y="860" width="410" height="30" as="geometry" />
        </mxCell>
        <mxCell id="M57DeVq3OlQzC3RYz_jO-42" style="edgeStyle=orthogonalEdgeStyle;rounded=0;orthogonalLoop=1;jettySize=auto;html=1;curved=0;entryX=0;entryY=1;entryDx=0;entryDy=-5;entryPerimeter=0;" edge="1" parent="M57DeVq3OlQzC3RYz_jO-1">
          <mxGeometry relative="1" as="geometry">
            <mxPoint x="49.16666666666674" y="890" as="sourcePoint" />
            <mxPoint x="570" y="890" as="targetPoint" />
            <Array as="points">
              <mxPoint x="110" y="890" />
              <mxPoint x="110" y="890" />
            </Array>
          </mxGeometry>
        </mxCell>
        <mxCell id="M57DeVq3OlQzC3RYz_jO-43" value="Switch l&#39;utilisateur vers l&#39;autre société" style="text;html=1;align=center;verticalAlign=middle;resizable=0;points=[];autosize=1;strokeColor=none;fillColor=none;" vertex="1" parent="M57DeVq3OlQzC3RYz_jO-1">
          <mxGeometry x="585" y="880" width="220" height="30" as="geometry" />
        </mxCell>
        <mxCell id="M57DeVq3OlQzC3RYz_jO-44" style="edgeStyle=orthogonalEdgeStyle;rounded=0;orthogonalLoop=1;jettySize=auto;html=1;curved=0;" edge="1" parent="M57DeVq3OlQzC3RYz_jO-1">
          <mxGeometry relative="1" as="geometry">
            <mxPoint x="570" y="930" as="sourcePoint" />
            <mxPoint x="49" y="930" as="targetPoint" />
            <Array as="points">
              <mxPoint x="460" y="930" />
              <mxPoint x="460" y="930" />
            </Array>
          </mxGeometry>
        </mxCell>
        <mxCell id="M57DeVq3OlQzC3RYz_jO-45" value="Accès accordé pour la société en question" style="text;html=1;align=center;verticalAlign=middle;resizable=0;points=[];autosize=1;strokeColor=none;fillColor=none;" vertex="1" parent="M57DeVq3OlQzC3RYz_jO-1">
          <mxGeometry x="200" y="900" width="250" height="30" as="geometry" />
        </mxCell>
        <mxCell id="M57DeVq3OlQzC3RYz_jO-46" value="Pour chaque demande du client, l&#39;identifiant de la société est envoyé pour les vérifications côté Backend" style="html=1;whiteSpace=wrap;" vertex="1" parent="M57DeVq3OlQzC3RYz_jO-1">
          <mxGeometry x="870" y="840" width="310" height="50" as="geometry" />
        </mxCell>
        <mxCell id="M57DeVq3OlQzC3RYz_jO-47" value="si Admin" style="shape=umlFrame;whiteSpace=wrap;html=1;pointerEvents=0;width=160;height=30;" vertex="1" parent="M57DeVq3OlQzC3RYz_jO-1">
          <mxGeometry x="-10" y="1030" width="1230" height="160" as="geometry" />
        </mxCell>
        <mxCell id="M57DeVq3OlQzC3RYz_jO-48" value="" style="html=1;points=[[0,0,0,0,5],[0,1,0,0,-5],[1,0,0,0,5],[1,1,0,0,-5]];perimeter=orthogonalPerimeter;outlineConnect=0;targetShapes=umlLifeline;portConstraint=eastwest;newEdgeStyle={&quot;curved&quot;:0,&quot;rounded&quot;:0};" vertex="1" parent="M57DeVq3OlQzC3RYz_jO-1">
          <mxGeometry x="570" y="1060" width="10" height="70" as="geometry" />
        </mxCell>
        <mxCell id="M57DeVq3OlQzC3RYz_jO-49" style="edgeStyle=orthogonalEdgeStyle;rounded=0;orthogonalLoop=1;jettySize=auto;html=1;curved=0;" edge="1" parent="M57DeVq3OlQzC3RYz_jO-1">
          <mxGeometry relative="1" as="geometry">
            <mxPoint x="570" y="1098" as="sourcePoint" />
            <mxPoint x="49" y="1098" as="targetPoint" />
            <Array as="points">
              <mxPoint x="460" y="1098" />
              <mxPoint x="460" y="1098" />
            </Array>
          </mxGeometry>
        </mxCell>
        <mxCell id="M57DeVq3OlQzC3RYz_jO-50" value="Accès à une autre interface ou il peut manipuler les données en rapport&amp;nbsp;&lt;div&gt;avec toutes les sociétés du Système&lt;/div&gt;" style="text;html=1;align=center;verticalAlign=middle;resizable=0;points=[];autosize=1;strokeColor=none;fillColor=none;" vertex="1" parent="M57DeVq3OlQzC3RYz_jO-1">
          <mxGeometry x="120" y="1061" width="410" height="40" as="geometry" />
        </mxCell>
      </root>
    </mxGraphModel>
  </diagram>
  <diagram id="rmj3yyjqc6FCLl0VChw4" name="Gouvernance du Projet">
    <mxGraphModel dx="2797" dy="1722" grid="1" gridSize="10" guides="1" tooltips="1" connect="1" arrows="1" fold="1" page="1" pageScale="1" pageWidth="850" pageHeight="1100" math="0" shadow="0">
      <root>
        <mxCell id="0" />
        <mxCell id="1" parent="0" />
        <mxCell id="JHPWZHF2hNg9e0YafB32-1" value="" style="ellipse;whiteSpace=wrap;html=1;aspect=fixed;fillColor=#006633;" vertex="1" parent="1">
          <mxGeometry x="210" y="270" width="560" height="560" as="geometry" />
        </mxCell>
        <mxCell id="JHPWZHF2hNg9e0YafB32-2" value="Commanditaire &amp;amp; Sponsor" style="text;html=1;align=center;verticalAlign=middle;resizable=0;points=[];autosize=1;strokeColor=none;fillColor=none;" vertex="1" parent="1">
          <mxGeometry x="320" y="138" width="160" height="30" as="geometry" />
        </mxCell>
        <mxCell id="JHPWZHF2hNg9e0YafB32-3" value="Chef de projet" style="text;html=1;align=center;verticalAlign=middle;resizable=0;points=[];autosize=1;strokeColor=none;fillColor=none;" vertex="1" parent="1">
          <mxGeometry x="360" y="190" width="100" height="30" as="geometry" />
        </mxCell>
        <mxCell id="JHPWZHF2hNg9e0YafB32-4" value="MOA" style="text;html=1;align=center;verticalAlign=middle;resizable=0;points=[];autosize=1;strokeColor=none;fillColor=none;" vertex="1" parent="1">
          <mxGeometry x="385" y="88" width="50" height="30" as="geometry" />
        </mxCell>
        <mxCell id="JHPWZHF2hNg9e0YafB32-5" value="MOE" style="text;html=1;align=center;verticalAlign=middle;resizable=0;points=[];autosize=1;strokeColor=none;fillColor=none;" vertex="1" parent="1">
          <mxGeometry x="270" y="88" width="50" height="30" as="geometry" />
        </mxCell>
        <mxCell id="JHPWZHF2hNg9e0YafB32-6" value="DSI" style="text;html=1;align=center;verticalAlign=middle;resizable=0;points=[];autosize=1;strokeColor=none;fillColor=none;" vertex="1" parent="1">
          <mxGeometry x="170" y="168" width="40" height="30" as="geometry" />
        </mxCell>
        <mxCell id="JHPWZHF2hNg9e0YafB32-7" value="&lt;span data-colorformula=&quot;THEMEGUARD(RGB(255,255,255))&quot; data-colorparams=&quot;#ffffff_null_null&quot; style=&quot;font-family: Calibri; font-size: 16pt; color: rgb(48, 48, 48);&quot;&gt;&lt;strong&gt;Direction des Système d&#39;Information&lt;/strong&gt;&lt;/span&gt;" style="text;html=1;align=center;verticalAlign=middle;resizable=0;points=[];autosize=1;strokeColor=none;fillColor=none;" vertex="1" parent="1">
          <mxGeometry x="-25" y="113" width="350" height="40" as="geometry" />
        </mxCell>
        <mxCell id="JHPWZHF2hNg9e0YafB32-8" value="&lt;span data-colorformula=&quot;THEMEGUARD(RGB(255,255,255))&quot; data-colorparams=&quot;#ffffff_null_null&quot; style=&quot;font-family: Calibri; font-size: 16pt; color: rgb(48, 48, 48);&quot;&gt;&lt;strong&gt;Direction Administrative &amp;amp; Financière&lt;/strong&gt;&lt;/span&gt;" style="text;html=1;align=center;verticalAlign=middle;resizable=0;points=[];autosize=1;strokeColor=none;fillColor=none;" vertex="1" parent="1">
          <mxGeometry x="-70" y="243" width="360" height="40" as="geometry" />
        </mxCell>
      </root>
    </mxGraphModel>
  </diagram>
</mxfile>
